<?xml version="1.0" standalone="no"?>
<!DOCTYPE svg PUBLIC "-//W3C//DTD SVG 20010904//EN"
 "http://www.w3.org/TR/2001/REC-SVG-20010904/DTD/svg10.dtd">
<svg version="1.0" xmlns="http://www.w3.org/2000/svg"
 width="324.000000pt" height="415.000000pt" viewBox="0 0 324.000000 415.000000"
 preserveAspectRatio="xMidYMid meet">

<g transform="translate(0.000000,415.000000) scale(0.100000,-0.100000)"
fill="#000000" stroke="none">
<path d="M1526 3523 c10 -40 14 -41 14 -5 0 18 -5 32 -10 32 -6 0 -8 -11 -4
-27z"/>
<path d="M1653 3503 c0 -15 2 -20 7 -13 6 9 9 9 13 -1 4 -11 6 -11 6 -1 1 7
-5 20 -13 27 -11 12 -13 10 -13 -12z"/>
<path d="M1445 3480 c-3 -5 -1 -10 4 -10 6 0 11 5 11 10 0 6 -2 10 -4 10 -3 0
-8 -4 -11 -10z"/>
<path d="M1560 3481 c0 -6 5 -13 10 -16 6 -3 10 1 10 9 0 9 -4 16 -10 16 -5 0
-10 -4 -10 -9z"/>
<path d="M1631 3474 c0 -11 3 -14 6 -6 3 7 2 16 -1 19 -3 4 -6 -2 -5 -13z"/>
<path d="M1765 3430 c3 -5 8 -10 11 -10 2 0 4 5 4 10 0 6 -5 10 -11 10 -5 0
-7 -4 -4 -10z"/>
<path d="M1800 3409 c0 -11 4 -18 10 -14 5 3 7 12 3 20 -7 21 -13 19 -13 -6z"/>
<path d="M1580 3411 c0 -5 5 -13 10 -16 6 -3 10 -2 10 4 0 5 -4 13 -10 16 -5
3 -10 2 -10 -4z"/>
<path d="M1637 3409 c-9 -6 -17 -15 -17 -20 0 -6 5 -7 10 -4 6 3 10 -4 11 -17
1 -16 3 -13 9 12 10 41 10 41 -13 29z"/>
<path d="M1701 3406 c-1 -16 -3 -17 -18 -5 -16 13 -17 12 -4 -3 7 -10 17 -15
22 -12 5 3 9 0 9 -7 0 -7 2 -10 5 -7 3 3 1 16 -4 29 -8 19 -10 20 -10 5z"/>
<path d="M1750 3378 c0 -9 7 -22 17 -29 15 -13 15 -12 3 11 -17 34 -20 36 -20
18z"/>
<path d="M1380 3370 c-8 -5 -12 -12 -9 -15 4 -3 12 1 19 10 14 17 11 19 -10 5z"/>
<path d="M1541 3364 c0 -11 3 -14 6 -6 3 7 2 16 -1 19 -3 4 -6 -2 -5 -13z"/>
<path d="M1444 3348 c-12 -14 -13 -18 -3 -10 9 6 20 8 24 4 5 -4 5 -2 2 5 -4
6 -1 14 5 16 8 3 8 6 2 6 -6 1 -19 -9 -30 -21z"/>
<path d="M1727 3364 c-3 -5 1 -15 9 -22 16 -14 18 -5 5 17 -5 7 -11 9 -14 5z"/>
<path d="M1920 3360 c0 -5 5 -10 11 -10 5 0 7 5 4 10 -3 6 -8 10 -11 10 -2 0
-4 -4 -4 -10z"/>
<path d="M1555 3329 c-8 -37 1 -52 11 -15 4 16 11 23 18 19 6 -4 5 1 -3 10
-18 22 -18 22 -26 -14z"/>
<path d="M1219 3333 c-13 -16 -12 -17 4 -4 9 7 17 15 17 17 0 8 -8 3 -21 -13z"/>
<path d="M1311 3336 c-9 -10 -8 -15 2 -19 8 -3 13 3 14 14 2 23 -1 24 -16 5z"/>
<path d="M1612 3320 c0 -14 2 -19 5 -12 2 6 2 18 0 25 -3 6 -5 1 -5 -13z"/>
<path d="M1843 3325 c0 -8 5 -11 10 -8 6 4 8 0 4 -10 -4 -11 -2 -14 9 -10 13
5 13 8 -2 24 -21 23 -21 23 -21 4z"/>
<path d="M1461 3313 c7 -12 15 -20 18 -17 3 2 -3 12 -13 22 -17 16 -18 16 -5
-5z"/>
<path d="M1510 3242 c0 -50 4 -93 9 -97 9 -5 4 175 -5 184 -2 2 -4 -37 -4 -87z"/>
<path d="M1749 3313 c-13 -16 -12 -17 4 -4 9 7 17 15 17 17 0 8 -8 3 -21 -13z"/>
<path d="M1293 3285 c0 -8 4 -12 9 -9 5 3 6 10 3 15 -9 13 -12 11 -12 -6z"/>
<path d="M1576 3287 c3 -10 9 -15 12 -12 3 3 0 11 -7 18 -10 9 -11 8 -5 -6z"/>
<path d="M1801 3292 c0 -7 -5 -11 -10 -8 -5 4 -7 -3 -4 -15 4 -13 9 -17 15
-11 6 6 8 18 5 28 -3 11 -5 13 -6 6z"/>
<path d="M1239 3273 c-6 -7 -7 -13 -2 -13 5 0 17 6 27 13 16 12 17 14 2 14 -9
0 -21 -6 -27 -14z"/>
<path d="M1430 3238 c0 -21 2 -38 4 -38 9 0 12 50 5 62 -6 8 -9 -1 -9 -24z"/>
<path d="M1759 3243 c-13 -16 -12 -17 4 -4 16 13 21 21 13 21 -2 0 -10 -8 -17
-17z"/>
<path d="M1830 3245 c0 -8 4 -15 10 -15 5 0 7 7 4 15 -4 8 -8 15 -10 15 -2 0
-4 -7 -4 -15z"/>
<path d="M1230 3239 c0 -5 -4 -8 -9 -4 -5 3 -13 0 -17 -6 -4 -8 -3 -9 4 -5 7
4 12 1 12 -6 0 -8 5 -5 11 5 10 18 12 18 37 -5 l27 -23 -24 28 c-25 28 -41 35
-41 16z"/>
<path d="M1553 3195 c0 -33 2 -45 4 -27 2 18 2 45 0 60 -2 15 -4 0 -4 -33z"/>
<path d="M1921 3224 c0 -11 3 -14 6 -6 3 7 2 16 -1 19 -3 4 -6 -2 -5 -13z"/>
<path d="M1582 3200 c0 -14 2 -19 5 -12 2 6 2 18 0 25 -3 6 -5 1 -5 -13z"/>
<path d="M1611 3204 c0 -11 3 -14 6 -6 3 7 2 16 -1 19 -3 4 -6 -2 -5 -13z"/>
<path d="M1765 3210 c-3 -5 -1 -10 4 -10 6 0 11 5 11 10 0 6 -2 10 -4 10 -3 0
-8 -4 -11 -10z"/>
<path d="M1079 3173 l-34 -38 38 34 c34 33 42 41 34 41 -2 0 -19 -17 -38 -37z"/>
<path d="M1941 3200 c1 -24 15 -54 21 -44 4 5 0 20 -8 34 -7 14 -13 18 -13 10z"/>
<path d="M1803 3145 c0 -33 2 -45 4 -27 2 18 2 45 0 60 -2 15 -4 0 -4 -33z"/>
<path d="M2095 3180 c10 -11 20 -20 23 -20 3 0 -3 9 -13 20 -10 11 -20 20 -23
20 -3 0 3 -9 13 -20z"/>
<path d="M1361 3174 c0 -11 3 -14 6 -6 3 7 2 16 -1 19 -3 4 -6 -2 -5 -13z"/>
<path d="M1823 3145 c0 -27 2 -38 4 -22 2 15 2 37 0 50 -2 12 -4 0 -4 -28z"/>
<path d="M2007 3171 c-4 -17 -3 -21 5 -13 5 5 8 16 6 23 -3 8 -7 3 -11 -10z"/>
<path d="M1115 3150 c-3 -5 -1 -10 4 -10 6 0 11 5 11 10 0 6 -2 10 -4 10 -3 0
-8 -4 -11 -10z"/>
<path d="M1413 3120 c0 -25 2 -35 4 -22 2 12 2 32 0 45 -2 12 -4 2 -4 -23z"/>
<path d="M1139 3120 c-12 -16 -26 -27 -31 -24 -4 3 -8 -2 -8 -10 0 -23 5 -20
40 24 17 22 29 40 26 40 -3 0 -15 -13 -27 -30z"/>
<path d="M1572 3120 c0 -19 2 -27 5 -17 2 9 2 25 0 35 -3 9 -5 1 -5 -18z"/>
<path d="M1781 3083 c-1 -40 3 -73 7 -73 5 0 7 28 4 63 -5 89 -10 94 -11 10z"/>
<path d="M2070 3129 c0 -11 4 -18 10 -14 5 3 7 12 3 20 -7 21 -13 19 -13 -6z"/>
<path d="M2015 3130 c3 -5 8 -10 11 -10 2 0 4 5 4 10 0 6 -5 10 -11 10 -5 0
-7 -4 -4 -10z"/>
<path d="M1682 3100 c0 -14 2 -19 5 -12 2 6 2 18 0 25 -3 6 -5 1 -5 -13z"/>
<path d="M1175 3070 c-4 -23 -5 -43 -2 -46 2 -3 7 14 11 37 4 23 5 44 2 46 -2
2 -7 -14 -11 -37z"/>
<path d="M1491 3094 c0 -11 3 -14 6 -6 3 7 2 16 -1 19 -3 4 -6 -2 -5 -13z"/>
<path d="M1302 3070 c0 -19 2 -27 5 -17 2 9 2 25 0 35 -3 9 -5 1 -5 -18z"/>
<path d="M1452 3080 c0 -14 2 -19 5 -12 2 6 2 18 0 25 -3 6 -5 1 -5 -13z"/>
<path d="M1282 3050 c0 -19 2 -27 5 -17 2 9 2 25 0 35 -3 9 -5 1 -5 -18z"/>
<path d="M1712 3060 c0 -14 2 -19 5 -12 2 6 2 18 0 25 -3 6 -5 1 -5 -13z"/>
<path d="M1951 3064 c0 -11 3 -14 6 -6 3 7 2 16 -1 19 -3 4 -6 -2 -5 -13z"/>
<path d="M2100 3076 c0 -2 8 -10 18 -17 15 -13 16 -12 3 4 -13 16 -21 21 -21
13z"/>
<path d="M2200 3076 c0 -2 8 -10 18 -17 15 -13 16 -12 3 4 -13 16 -21 21 -21
13z"/>
<path d="M1361 3044 c0 -11 3 -14 6 -6 3 7 2 16 -1 19 -3 4 -6 -2 -5 -13z"/>
<path d="M1543 3010 c0 -30 2 -43 4 -27 2 15 2 39 0 55 -2 15 -4 2 -4 -28z"/>
<path d="M1901 3044 c0 -11 3 -14 6 -6 3 7 2 16 -1 19 -3 4 -6 -2 -5 -13z"/>
<path d="M1381 3024 c0 -11 3 -14 6 -6 3 7 2 16 -1 19 -3 4 -6 -2 -5 -13z"/>
<path d="M1810 3031 c0 -6 4 -13 10 -16 6 -3 7 1 4 9 -7 18 -14 21 -14 7z"/>
<path d="M946 3018 c3 -5 10 -6 15 -3 13 9 11 12 -6 12 -8 0 -12 -4 -9 -9z"/>
<path d="M1633 2980 c0 -25 2 -35 4 -22 2 12 2 32 0 45 -2 12 -4 2 -4 -23z"/>
<path d="M1421 2994 c0 -11 3 -14 6 -6 3 7 2 16 -1 19 -3 4 -6 -2 -5 -13z"/>
<path d="M1680 3001 c0 -6 5 -13 10 -16 6 -3 10 1 10 9 0 9 -4 16 -10 16 -5 0
-10 -4 -10 -9z"/>
<path d="M2061 2994 c0 -11 3 -14 6 -6 3 7 2 16 -1 19 -3 4 -6 -2 -5 -13z"/>
<path d="M1782 2980 c0 -14 2 -19 5 -12 2 6 2 18 0 25 -3 6 -5 1 -5 -13z"/>
<path d="M1980 2990 c0 -5 0 -13 1 -16 0 -4 -5 -10 -11 -14 -8 -5 -5 -9 7 -12
16 -4 18 -1 15 23 -4 28 -12 40 -12 19z"/>
<path d="M1582 2965 c0 -16 2 -22 5 -12 2 9 2 23 0 30 -3 6 -5 -1 -5 -18z"/>
<path d="M1150 2960 c-6 -11 -8 -20 -6 -20 3 0 10 9 16 20 6 11 8 20 6 20 -3
0 -10 -9 -16 -20z"/>
<path d="M1712 2910 c0 -48 2 -66 7 -50 4 14 5 48 1 75 -7 47 -7 45 -8 -25z"/>
<path d="M1299 2933 c-13 -16 -12 -17 4 -4 9 7 17 15 17 17 0 8 -8 3 -21 -13z"/>
<path d="M1425 2940 c-3 -5 -1 -10 4 -10 6 0 11 5 11 10 0 6 -2 10 -4 10 -3 0
-8 -4 -11 -10z"/>
<path d="M1530 2931 c0 -25 6 -27 13 -6 4 8 2 17 -3 20 -6 4 -10 -3 -10 -14z"/>
<path d="M1215 2931 c-3 -5 -1 -12 5 -16 5 -3 10 1 10 9 0 18 -6 21 -15 7z"/>
<path d="M1262 2925 c0 -11 3 -29 8 -40 11 -25 11 1 0 35 -6 20 -8 21 -8 5z"/>
<path d="M1964 2925 c8 -8 18 -15 22 -15 3 0 1 7 -6 15 -7 8 -17 15 -22 15 -5
0 -3 -7 6 -15z"/>
<path d="M2130 2920 c0 -5 5 -10 11 -10 5 0 7 5 4 10 -3 6 -8 10 -11 10 -2 0
-4 -4 -4 -10z"/>
<path d="M1396 2912 c-2 -4 -1 -14 5 -22 7 -12 9 -10 9 8 0 23 -5 28 -14 14z"/>
<path d="M1306 2902 c-3 -5 1 -9 9 -9 8 0 12 4 9 9 -3 4 -7 8 -9 8 -2 0 -6 -4
-9 -8z"/>
<path d="M1436 2897 c3 -10 9 -15 12 -12 3 3 0 11 -7 18 -10 9 -11 8 -5 -6z"/>
<path d="M1195 2891 c-3 -5 -1 -12 5 -16 5 -3 10 1 10 9 0 18 -6 21 -15 7z"/>
<path d="M1960 2889 c0 -5 5 -7 10 -4 6 3 10 8 10 11 0 2 -4 4 -10 4 -5 0 -10
-5 -10 -11z"/>
<path d="M2040 2885 c0 -8 2 -15 4 -15 2 0 6 7 10 15 3 8 1 15 -4 15 -6 0 -10
-7 -10 -15z"/>
<path d="M947 2879 c7 -7 15 -10 18 -7 3 3 -2 9 -12 12 -14 6 -15 5 -6 -5z"/>
<path d="M1125 2880 c3 -5 8 -10 11 -10 2 0 4 5 4 10 0 6 -5 10 -11 10 -5 0
-7 -4 -4 -10z"/>
<path d="M1010 2870 c-13 -8 -13 -10 2 -10 9 0 20 5 23 10 8 13 -5 13 -25 0z"/>
<path d="M1315 2870 c-3 -6 1 -7 9 -4 18 7 21 14 7 14 -6 0 -13 -4 -16 -10z"/>
<path d="M1621 2864 c0 -11 3 -14 6 -6 3 7 2 16 -1 19 -3 4 -6 -2 -5 -13z"/>
<path d="M1920 2865 c0 -8 2 -15 4 -15 2 0 6 7 10 15 3 8 1 15 -4 15 -6 0 -10
-7 -10 -15z"/>
<path d="M898 2863 c7 -3 16 -2 19 1 4 3 -2 6 -13 5 -11 0 -14 -3 -6 -6z"/>
<path d="M1475 2860 c-3 -5 -1 -10 4 -10 6 0 11 5 11 10 0 6 -2 10 -4 10 -3 0
-8 -4 -11 -10z"/>
<path d="M1065 2851 c-3 -5 -1 -12 5 -16 5 -3 10 1 10 9 0 18 -6 21 -15 7z"/>
<path d="M1508 2835 c2 -14 6 -25 8 -25 2 0 4 11 4 25 0 14 -4 25 -9 25 -4 0
-6 -11 -3 -25z"/>
<path d="M910 2812 c-12 -20 -15 -30 -7 -24 7 7 17 8 21 4 4 -4 6 -1 4 7 -1 8
7 20 20 26 22 12 22 13 3 18 -15 4 -25 -4 -41 -31z"/>
<path d="M2335 2823 c17 -17 36 -27 44 -25 9 3 12 1 7 -6 -3 -6 -3 -13 2 -16
5 -3 9 1 9 9 0 18 -22 37 -62 54 l-30 13 30 -29z"/>
<path d="M818 2833 c7 -3 16 -2 19 1 4 3 -2 6 -13 5 -11 0 -14 -3 -6 -6z"/>
<path d="M860 2825 c-7 -9 -10 -18 -7 -21 3 -3 10 4 17 15 13 25 8 27 -10 6z"/>
<path d="M2230 2830 c-9 -6 -10 -10 -3 -10 6 0 15 5 18 10 8 12 4 12 -15 0z"/>
<path d="M1336 2816 c3 -9 10 -16 15 -16 5 0 9 -6 9 -14 0 -7 7 -19 15 -26 13
-11 13 -8 1 26 -7 22 -20 40 -29 42 -12 2 -15 -1 -11 -12z"/>
<path d="M1480 2821 c0 -6 5 -13 10 -16 6 -3 10 1 10 9 0 9 -4 16 -10 16 -5 0
-10 -4 -10 -9z"/>
<path d="M1810 2814 c0 -8 5 -12 10 -9 6 4 8 11 5 16 -9 14 -15 11 -15 -7z"/>
<path d="M805 2800 c-3 -5 -1 -10 4 -10 6 0 11 5 11 10 0 6 -2 10 -4 10 -3 0
-8 -4 -11 -10z"/>
<path d="M980 2806 c0 -2 7 -6 15 -10 8 -3 15 -1 15 4 0 6 -7 10 -15 10 -8 0
-15 -2 -15 -4z"/>
<path d="M2100 2781 c8 -6 11 -11 5 -11 -5 0 -4 -4 4 -9 8 -5 29 -7 47 -4 18
3 46 1 63 -5 17 -6 33 -7 36 -2 4 7 -43 19 -140 36 -23 4 -26 3 -15 -5z"/>
<path d="M965 2760 c11 -5 27 -9 35 -9 13 -1 13 0 0 9 -8 5 -24 9 -35 9 l-20
0 20 -9z"/>
<path d="M1070 2756 c19 -8 39 -11 44 -8 13 7 -23 21 -54 21 -22 -1 -20 -2 10
-13z"/>
<path d="M1916 2759 c4 -8 -1 -9 -17 -4 -19 5 -21 4 -9 -4 22 -15 40 -13 40 4
0 8 -5 15 -11 15 -5 0 -7 -5 -3 -11z"/>
<path d="M1410 2755 c0 -4 7 -20 16 -36 8 -17 13 -37 10 -44 -6 -18 20 -40 29
-25 4 6 1 9 -7 8 -8 -2 -12 5 -10 19 2 12 -4 36 -13 52 -14 28 -25 39 -25 26z"/>
<path d="M1188 2738 c6 -6 18 -8 28 -6 14 3 12 5 -9 10 -19 3 -25 2 -19 -4z"/>
<path d="M1985 2740 c-3 -5 -1 -10 4 -10 6 0 11 5 11 10 0 6 -2 10 -4 10 -3 0
-8 -4 -11 -10z"/>
<path d="M2145 2740 c-8 -13 5 -13 25 0 13 8 13 10 -2 10 -9 0 -20 -4 -23 -10z"/>
<path d="M1268 2733 c-10 -2 -18 -8 -18 -13 0 -5 14 -4 30 1 45 16 36 25 -12
12z"/>
<path d="M2443 2725 c0 -8 4 -12 9 -9 5 3 6 10 3 15 -9 13 -12 11 -12 -6z"/>
<path d="M1059 2713 c-13 -16 -12 -17 4 -4 9 7 17 15 17 17 0 8 -8 3 -21 -13z"/>
<path d="M1800 2722 c0 -12 19 -26 26 -19 2 2 -2 10 -11 17 -9 8 -15 8 -15 2z"/>
<path d="M886 2712 c-2 -4 -1 -14 4 -22 7 -11 9 -9 7 8 -1 24 -3 26 -11 14z"/>
<path d="M1170 2710 c0 -5 7 -10 16 -10 8 0 12 5 9 10 -3 6 -10 10 -16 10 -5
0 -9 -4 -9 -10z"/>
<path d="M910 2700 c0 -13 11 -13 30 0 12 8 11 10 -7 10 -13 0 -23 -4 -23 -10z"/>
<path d="M1655 2700 c-19 -8 -19 -9 3 -9 12 -1 22 4 22 9 0 6 -1 10 -2 9 -2 0
-12 -4 -23 -9z"/>
<path d="M1765 2700 c-19 -8 -19 -9 3 -9 12 -1 22 4 22 9 0 6 -1 10 -2 9 -2 0
-12 -4 -23 -9z"/>
<path d="M1145 2690 c-3 -5 -1 -10 4 -10 6 0 11 5 11 10 0 6 -2 10 -4 10 -3 0
-8 -4 -11 -10z"/>
<path d="M2140 2690 c8 -5 20 -10 25 -10 6 0 3 5 -5 10 -8 5 -19 10 -25 10 -5
0 -3 -5 5 -10z"/>
<path d="M1273 2683 c-13 -2 -23 -8 -23 -12 0 -5 11 -6 25 -3 14 2 25 8 25 13
0 5 -1 8 -2 8 -2 -1 -13 -4 -25 -6z"/>
<path d="M1484 2673 c15 -4 16 -7 5 -14 -8 -5 -9 -9 -3 -9 5 0 18 6 29 13 16
13 15 14 -16 14 -19 0 -25 -2 -15 -4z"/>
<path d="M1337 2659 c7 -7 15 -10 18 -7 3 3 -2 9 -12 12 -14 6 -15 5 -6 -5z"/>
<path d="M2306 2658 c3 -5 10 -6 15 -3 13 9 11 12 -6 12 -8 0 -12 -4 -9 -9z"/>
<path d="M2436 2658 c3 -5 10 -6 15 -3 13 9 11 12 -6 12 -8 0 -12 -4 -9 -9z"/>
<path d="M2376 2647 c3 -10 9 -15 12 -12 3 3 0 11 -7 18 -10 9 -11 8 -5 -6z"/>
<path d="M1985 2640 c-3 -5 1 -10 10 -10 9 0 13 5 10 10 -3 6 -8 10 -10 10 -2
0 -7 -4 -10 -10z"/>
<path d="M2105 2641 c-3 -5 -2 -12 3 -15 5 -3 9 1 9 9 0 17 -3 19 -12 6z"/>
<path d="M2045 2630 c-3 -6 1 -7 9 -4 18 7 21 14 7 14 -6 0 -13 -4 -16 -10z"/>
<path d="M1145 2620 c-3 -5 -3 -10 1 -10 4 0 -1 -10 -12 -22 -19 -23 -19 -23
2 -5 11 9 21 24 21 32 0 18 -3 19 -12 5z"/>
<path d="M2130 2620 c0 -5 7 -7 15 -4 8 4 15 8 15 10 0 2 -7 4 -15 4 -8 0 -15
-4 -15 -10z"/>
<path d="M860 2609 c0 -5 5 -7 10 -4 6 3 10 8 10 11 0 2 -4 4 -10 4 -5 0 -10
-5 -10 -11z"/>
<path d="M1093 2598 c-11 -19 -13 -39 -1 -32 5 3 7 9 4 12 -3 3 -1 11 5 19 6
7 9 13 6 13 -3 0 -9 -6 -14 -12z"/>
<path d="M1685 2600 c-3 -5 -1 -10 4 -10 6 0 11 5 11 10 0 6 -2 10 -4 10 -3 0
-8 -4 -11 -10z"/>
<path d="M2107 2604 c-4 -7 0 -18 9 -25 19 -15 47 -21 38 -8 -3 5 -11 9 -19 9
-7 0 -15 8 -17 18 -2 11 -6 13 -11 6z"/>
<path d="M1033 2585 c0 -8 4 -12 9 -9 5 3 6 10 3 15 -9 13 -12 11 -12 -6z"/>
<path d="M775 2579 c-4 -6 -5 -12 -2 -15 2 -3 7 2 10 11 7 17 1 20 -8 4z"/>
<path d="M1471 2579 c16 -6 40 -6 65 0 37 9 36 9 -26 9 -52 0 -60 -1 -39 -9z"/>
<path d="M2345 2580 c4 -6 11 -8 16 -5 14 9 11 15 -7 15 -8 0 -12 -5 -9 -10z"/>
<path d="M710 2545 c-13 -14 -19 -25 -14 -25 8 1 50 50 41 50 -2 0 -14 -11
-27 -25z"/>
<path d="M2220 2560 c0 -5 5 -10 11 -10 5 0 7 5 4 10 -3 6 -8 10 -11 10 -2 0
-4 -4 -4 -10z"/>
<path d="M2526 2557 c3 -10 9 -15 12 -12 3 3 0 11 -7 18 -10 9 -11 8 -5 -6z"/>
<path d="M2386 2550 c9 -15 10 -20 13 -40 2 -16 18 -12 18 5 0 8 -9 23 -20 32
-14 13 -18 13 -11 3z"/>
<path d="M1096 2533 c-6 -14 -5 -15 5 -6 7 7 10 15 7 18 -3 3 -9 -2 -12 -12z"/>
<path d="M760 2519 c-7 -11 -9 -23 -6 -27 3 -3 6 0 6 7 0 7 4 10 8 7 4 -2 9 4
9 15 2 25 -4 24 -17 -2z"/>
<path d="M1166 2531 c-3 -5 2 -15 12 -22 15 -12 16 -12 5 2 -7 9 -10 19 -6 22
3 4 4 7 0 7 -3 0 -8 -4 -11 -9z"/>
<path d="M1981 2536 c2 -2 18 -6 34 -10 22 -5 26 -4 15 4 -14 9 -59 15 -49 6z"/>
<path d="M972 2510 c-15 -25 -4 -26 15 -2 13 15 13 15 7 -8 -6 -24 -6 -24 9
-5 11 15 12 22 4 27 -18 11 -21 10 -35 -12z"/>
<path d="M1065 2520 c-4 -6 -10 -8 -14 -5 -5 2 -16 -4 -25 -14 -29 -32 -1 -32
29 -1 16 17 26 30 22 30 -3 0 -9 -5 -12 -10z m-15 -14 c0 -2 -8 -10 -17 -17
-16 -13 -17 -12 -4 4 13 16 21 21 21 13z"/>
<path d="M1930 2520 c13 -8 13 -10 -2 -10 -9 0 -19 -4 -22 -9 -3 -5 12 -4 34
1 46 12 46 13 5 22 -22 5 -26 4 -15 -4z"/>
<path d="M2193 2516 c1 -6 -11 -13 -28 -17 l-30 -7 33 -1 c17 0 32 4 32 10 0
5 4 8 9 4 5 -3 12 -1 16 5 4 6 12 7 18 4 7 -4 9 -3 4 1 -10 12 -56 13 -54 1z"/>
<path d="M1685 2510 c-3 -5 -1 -10 4 -10 6 0 11 5 11 10 0 6 -2 10 -4 10 -3 0
-8 -4 -11 -10z"/>
<path d="M2106 2509 c4 -7 44 0 44 7 0 2 -11 3 -24 2 -14 -1 -23 -5 -20 -9z"/>
<path d="M680 2499 c0 -5 5 -7 10 -4 6 3 10 8 10 11 0 2 -4 4 -10 4 -5 0 -10
-5 -10 -11z"/>
<path d="M1132 2505 c4 -4 3 -14 -4 -22 -8 -11 -7 -12 6 -7 19 7 21 20 4 30
-7 4 -10 4 -6 -1z"/>
<path d="M1775 2485 c-16 -13 -27 -27 -24 -30 3 -3 18 6 32 19 14 13 29 21 33
17 4 -3 4 0 0 7 -9 15 -5 16 -41 -13z"/>
<path d="M1540 2496 c0 -2 7 -7 16 -10 8 -3 12 -2 9 4 -6 10 -25 14 -25 6z"/>
<path d="M2526 2491 c-4 -5 -2 -12 3 -15 5 -4 12 -2 15 3 4 5 2 12 -3 15 -5 4
-12 2 -15 -3z"/>
<path d="M2246 2477 c3 -10 9 -15 12 -12 3 3 0 11 -7 18 -10 9 -11 8 -5 -6z"/>
<path d="M790 2470 c-24 -15 -7 -19 20 -5 15 8 19 14 10 14 -8 1 -22 -3 -30
-9z"/>
<path d="M956 2465 c-10 -7 -15 -18 -12 -23 8 -14 -11 -62 -32 -79 -15 -13
-15 -13 3 -4 43 20 94 101 64 101 -5 0 -7 5 -4 10 8 13 4 12 -19 -5z"/>
<path d="M1290 2471 c0 -5 -6 -11 -12 -14 -7 -2 -4 -3 7 -1 11 2 36 4 55 5 29
0 31 2 15 9 -27 12 -65 12 -65 1z"/>
<path d="M2151 2466 c-9 -11 -6 -12 14 -8 14 2 25 8 25 13 0 14 -26 11 -39 -5z"/>
<path d="M1814 2454 c-18 -14 -18 -15 4 -4 12 6 22 13 22 15 0 8 -5 6 -26 -11z"/>
<path d="M1985 2460 c-16 -7 -17 -9 -3 -9 9 -1 20 4 23 9 7 11 7 11 -20 0z"/>
<path d="M2396 2459 c6 -11 31 -12 37 -1 3 4 -6 8 -19 8 -13 1 -21 -2 -18 -7z"/>
<path d="M616 2448 c3 -5 10 -6 15 -3 13 9 11 12 -6 12 -8 0 -12 -4 -9 -9z"/>
<path d="M720 2445 c-7 -9 -8 -15 -2 -15 5 0 12 7 16 15 3 8 4 15 2 15 -2 0
-9 -7 -16 -15z"/>
<path d="M1727 2453 c-4 -3 -7 -11 -7 -17 0 -6 5 -5 12 2 6 6 9 14 7 17 -3 3
-9 2 -12 -2z"/>
<path d="M2195 2450 c-3 -6 1 -7 9 -4 18 7 21 14 7 14 -6 0 -13 -4 -16 -10z"/>
<path d="M2227 2430 c-3 -11 -1 -20 4 -20 5 0 9 9 9 20 0 11 -2 20 -4 20 -2 0
-6 -9 -9 -20z"/>
<path d="M1685 2414 c-9 -15 -12 -23 -6 -20 11 7 35 46 28 46 -3 0 -12 -12
-22 -26z"/>
<path d="M1749 2402 c-49 -51 -60 -75 -15 -32 31 29 65 72 54 69 -2 0 -19 -17
-39 -37z"/>
<path d="M2130 2426 c0 -7 -9 -25 -21 -40 -26 -34 -14 -33 33 2 34 26 35 29
17 40 -24 15 -29 15 -29 -2z"/>
<path d="M2261 2414 c0 -11 3 -14 6 -6 3 7 2 16 -1 19 -3 4 -6 -2 -5 -13z"/>
<path d="M2360 2426 c0 -9 30 -14 35 -6 4 6 -3 10 -14 10 -12 0 -21 -2 -21 -4z"/>
<path d="M2465 2421 c-3 -5 -2 -12 3 -15 5 -3 9 1 9 9 0 17 -3 19 -12 6z"/>
<path d="M750 2409 c0 -5 5 -7 10 -4 6 3 10 8 10 11 0 2 -4 4 -10 4 -5 0 -10
-5 -10 -11z"/>
<path d="M810 2410 c0 -5 7 -7 15 -4 8 4 15 8 15 10 0 2 -7 4 -15 4 -8 0 -15
-4 -15 -10z"/>
<path d="M1205 2410 c3 -5 11 -10 16 -10 6 0 7 5 4 10 -3 6 -11 10 -16 10 -6
0 -7 -4 -4 -10z"/>
<path d="M1265 2410 c-19 -8 -19 -9 3 -9 12 -1 22 4 22 9 0 6 -1 10 -2 9 -2 0
-12 -4 -23 -9z"/>
<path d="M1410 2412 c0 -5 12 -19 27 -33 20 -17 23 -18 10 -3 -18 22 -23 39
-8 29 5 -3 12 -2 15 3 2 4 -6 9 -20 10 -13 1 -24 -2 -24 -6z"/>
<path d="M1860 2408 c0 -6 3 -8 7 -5 3 4 13 1 22 -6 14 -11 14 -10 2 6 -15 20
-31 22 -31 5z"/>
<path d="M580 2400 c-8 -5 -12 -12 -9 -15 4 -3 12 1 19 10 14 17 11 19 -10 5z"/>
<path d="M1835 2399 c-4 -6 -5 -12 -2 -15 2 -3 7 2 10 11 7 17 1 20 -8 4z"/>
<path d="M2050 2400 c-9 -6 -10 -10 -3 -10 6 0 15 5 18 10 8 12 4 12 -15 0z"/>
<path d="M1385 2380 c21 -24 26 -25 19 -6 -3 8 -13 17 -22 21 -13 5 -13 2 3
-15z"/>
<path d="M1775 2370 c-15 -16 -31 -27 -35 -25 -4 3 -13 -2 -20 -10 -9 -10 -9
-15 -1 -15 6 0 11 5 11 11 0 5 4 8 8 5 5 -3 24 10 42 29 19 19 32 35 29 35 -3
0 -18 -13 -34 -30z"/>
<path d="M1946 2391 c-3 -4 4 -7 14 -8 11 -1 22 2 24 6 3 4 -4 7 -14 8 -11 1
-22 -2 -24 -6z"/>
<path d="M2196 2388 c3 -4 11 -5 19 -1 21 7 19 12 -4 10 -11 0 -18 -5 -15 -9z"/>
<path d="M1040 2376 c-5 -5 -10 -15 -10 -20 0 -6 5 -3 11 7 6 9 14 15 19 12 5
-3 11 -2 14 3 7 12 -21 11 -34 -2z"/>
<path d="M1280 2386 c0 -2 7 -7 16 -10 8 -3 12 -2 9 4 -6 10 -25 14 -25 6z"/>
<path d="M1373 2362 c15 -16 25 -31 22 -34 -3 -2 2 -5 10 -5 11 0 5 11 -17 34
-17 18 -34 33 -37 33 -3 0 7 -13 22 -28z"/>
<path d="M1636 2363 c-6 -14 -5 -15 5 -6 7 7 10 15 7 18 -3 3 -9 -2 -12 -12z"/>
<path d="M1890 2353 c-19 -14 -27 -23 -16 -19 10 3 26 1 35 -6 13 -10 14 -10
4 2 -10 11 -9 17 4 32 21 24 15 22 -27 -9z"/>
<path d="M663 2346 c-18 -21 -18 -21 2 -5 11 9 26 14 33 12 6 -3 12 -1 12 5 0
16 -30 9 -47 -12z"/>
<path d="M810 2359 c0 -5 5 -7 10 -4 6 3 10 8 10 11 0 2 -4 4 -10 4 -5 0 -10
-5 -10 -11z"/>
<path d="M1089 2353 c-13 -16 -12 -17 4 -4 9 7 17 15 17 17 0 8 -8 3 -21 -13z"/>
<path d="M2360 2360 c19 -13 30 -13 30 0 0 6 -10 10 -22 10 -19 0 -20 -2 -8
-10z"/>
<path d="M1235 2350 c3 -5 8 -10 11 -10 2 0 4 5 4 10 0 6 -5 10 -11 10 -5 0
-7 -4 -4 -10z"/>
<path d="M1313 2336 c-1 -12 1 -15 4 -9 3 9 11 8 29 -4 19 -12 23 -12 19 -2
-3 8 -16 19 -28 25 -20 9 -23 7 -24 -10z"/>
<path d="M1515 2350 c3 -5 11 -10 16 -10 6 0 7 5 4 10 -3 6 -11 10 -16 10 -6
0 -7 -4 -4 -10z"/>
<path d="M2270 2356 c0 -2 8 -10 18 -17 15 -13 16 -12 3 4 -13 16 -21 21 -21
13z"/>
<path d="M1542 2334 c-7 -8 -8 -14 -3 -14 10 0 25 19 20 25 -2 1 -10 -3 -17
-11z"/>
<path d="M2209 2348 c-5 -18 -6 -38 -1 -34 7 8 12 36 6 36 -2 0 -4 -1 -5 -2z"/>
<path d="M2493 2335 c0 -8 4 -12 8 -9 4 2 12 -4 18 -13 6 -10 11 -13 11 -7 0
6 -8 18 -18 27 -15 14 -19 15 -19 2z"/>
<path d="M1200 2315 c28 -29 27 -29 27 -10 0 8 -4 12 -9 9 -4 -3 -11 2 -14 10
-3 9 -11 16 -17 16 -6 0 0 -11 13 -25z"/>
<path d="M1479 2318 c26 -30 41 -36 41 -16 0 6 -3 8 -7 5 -3 -4 -18 3 -32 15
l-26 23 24 -27z"/>
<path d="M2056 2329 c2 -4 -9 -17 -25 -28 -33 -24 -46 -27 -35 -8 5 8 3 8 -9
-2 -9 -7 -14 -17 -12 -22 3 -4 -7 -15 -22 -23 -15 -8 -23 -15 -18 -16 13 0 79
44 122 81 25 22 28 27 13 26 -10 -1 -17 -4 -14 -8z"/>
<path d="M1675 2319 c-4 -6 -12 -8 -19 -6 -7 3 -11 -7 -11 -29 0 -32 19 -44
20 -13 1 8 7 13 15 11 11 -3 11 0 1 12 -10 12 -9 16 6 25 10 6 13 11 6 11 -6
0 -15 -5 -18 -11z"/>
<path d="M1843 2315 c0 -7 6 -11 14 -8 7 3 13 6 13 8 0 2 -6 5 -13 8 -8 3 -14
-1 -14 -8z"/>
<path d="M1979 2313 c-13 -16 -12 -17 4 -4 9 7 17 15 17 17 0 8 -8 3 -21 -13z"/>
<path d="M2400 2324 c0 -2 9 -8 20 -14 11 -6 20 -7 20 -2 0 6 -9 12 -20 15
-11 3 -20 3 -20 1z"/>
<path d="M768 2313 c6 -2 18 -2 25 0 6 3 1 5 -13 5 -14 0 -19 -2 -12 -5z"/>
<path d="M1000 2311 c0 -6 5 -13 10 -16 6 -4 7 -11 4 -17 -4 -7 -2 -8 4 -4 22
14 12 -23 -10 -38 -12 -9 -18 -16 -13 -16 6 1 24 12 40 26 17 15 24 23 18 20
-7 -4 -13 -2 -13 3 0 6 -9 20 -20 31 -11 11 -20 16 -20 11z"/>
<path d="M1792 2270 c-16 -30 -34 -50 -44 -50 -10 0 -17 -6 -15 -12 1 -7 -4
-12 -11 -10 -10 2 -10 -2 0 -18 11 -16 14 -17 21 -5 4 9 12 13 16 10 5 -2 8 3
7 13 0 9 5 16 12 14 8 -1 11 2 7 8 -3 5 1 10 10 10 11 0 14 7 11 25 -3 15 -1
23 5 20 5 -4 6 -12 2 -18 -5 -9 -3 -9 8 0 8 6 17 12 22 12 12 2 8 16 -5 16 -7
0 -12 8 -12 18 3 27 -4 21 -34 -33z"/>
<path d="M2146 2304 c-9 -8 -16 -17 -16 -19 0 -3 28 1 40 5 3 1 9 2 14 1 5 -1
4 5 -4 13 -15 20 -15 20 -34 0z"/>
<path d="M2216 2283 c-24 -21 -45 -44 -45 -51 -1 -7 -5 -10 -11 -7 -5 3 -18 1
-27 -5 -16 -9 -15 -10 4 -5 18 5 22 3 17 -9 -3 -9 -9 -14 -13 -11 -4 2 -8 -3
-8 -12 0 -12 6 -9 23 10 12 14 24 23 27 21 3 -3 4 1 4 8 -1 7 3 14 8 15 6 0 9
-2 8 -6 -1 -4 18 -8 43 -9 37 -1 42 1 32 12 -7 8 -15 10 -17 4 -1 -5 -12 -2
-22 8 -12 11 -19 13 -19 5 0 -7 -5 -9 -11 -5 -8 4 2 19 27 40 53 46 36 43 -20
-3z"/>
<path d="M2333 2313 c9 -2 23 -2 30 0 6 3 -1 5 -18 5 -16 0 -22 -2 -12 -5z"/>
<path d="M865 2300 c3 -5 13 -10 21 -10 8 0 14 5 14 10 0 6 -9 10 -21 10 -11
0 -17 -4 -14 -10z"/>
<path d="M915 2300 c-3 -5 -1 -10 6 -10 8 0 6 -7 -5 -19 -17 -19 -17 -19 3
-14 14 3 21 13 21 29 0 24 -14 32 -25 14z"/>
<path d="M1551 2299 c12 -7 12 -9 0 -9 -8 0 -12 -2 -10 -5 7 -6 49 6 49 15 0
4 -12 8 -26 8 -18 0 -22 -3 -13 -9z"/>
<path d="M1611 2294 c0 -11 3 -14 6 -6 3 7 2 16 -1 19 -3 4 -6 -2 -5 -13z"/>
<path d="M2280 2298 c0 -4 5 -8 11 -8 6 0 7 -5 2 -12 -10 -17 -14 -42 -5 -33
4 4 8 11 8 16 1 5 2 10 4 12 9 11 5 34 -6 34 -8 0 -14 -4 -14 -9z"/>
<path d="M805 2290 c3 -5 8 -10 11 -10 2 0 4 5 4 10 0 6 -5 10 -11 10 -5 0 -7
-4 -4 -10z"/>
<path d="M1170 2296 c0 -2 8 -10 18 -17 15 -13 16 -12 3 4 -13 16 -21 21 -21
13z"/>
<path d="M1412 2273 c25 -27 30 -29 22 -8 -4 8 -10 15 -16 15 -5 0 -7 4 -4 8
3 5 -2 9 -10 9 -11 0 -9 -6 8 -24z"/>
<path d="M700 2265 c13 -14 26 -25 28 -25 3 0 -5 11 -18 25 -13 14 -26 25 -28
25 -3 0 5 -11 18 -25z"/>
<path d="M1457 2279 c7 -7 15 -10 18 -7 3 3 -2 9 -12 12 -14 6 -15 5 -6 -5z"/>
<path d="M2085 2280 c3 -5 8 -10 11 -10 2 0 4 5 4 10 0 6 -5 10 -11 10 -5 0
-7 -4 -4 -10z"/>
<path d="M1095 2260 c10 -11 19 -20 21 -20 1 0 2 9 1 20 -1 13 -8 20 -21 20
-18 0 -19 -1 -1 -20z"/>
<path d="M1355 2266 c-11 -8 -24 -12 -30 -10 -6 3 -20 -6 -31 -18 l-19 -23 21
18 c32 26 40 20 13 -10 l-24 -28 31 28 c27 24 32 26 38 12 3 -10 13 -15 20
-12 8 3 20 -1 26 -9 13 -15 30 -19 30 -6 0 9 -64 49 -67 42 -1 -3 -5 -1 -10 4
-4 5 -3 6 3 3 7 -4 14 0 18 8 7 18 5 19 -19 1z"/>
<path d="M1567 2268 c-13 -10 -14 -17 -6 -28 9 -13 10 -12 5 3 -3 9 -1 17 4
17 6 0 10 -9 10 -20 0 -11 7 -20 15 -20 17 0 20 -23 5 -50 -7 -13 -6 -19 4
-23 11 -5 14 5 12 43 -2 29 2 51 8 54 6 2 4 5 -6 5 -9 1 -19 -5 -22 -11 -3 -7
-4 -1 -2 15 4 30 -2 33 -27 15z"/>
<path d="M2124 2263 c17 -21 20 -21 42 -6 27 17 27 27 0 17 -9 -3 -16 -11 -16
-17 0 -5 -10 -2 -22 9 l-23 19 19 -22z"/>
<path d="M2465 2270 c-16 -7 -17 -9 -3 -9 9 -1 20 4 23 9 7 11 7 11 -20 0z"/>
<path d="M2020 2255 c-7 -9 -8 -15 -2 -15 5 0 12 7 16 15 3 8 4 15 2 15 -2 0
-9 -7 -16 -15z"/>
<path d="M2527 2254 c2 -7 12 -15 20 -18 12 -5 13 -4 5 7 -7 8 -10 16 -7 19 3
2 -1 5 -9 5 -8 0 -12 -6 -9 -13z"/>
<path d="M620 2235 c-13 -14 -19 -25 -13 -25 6 0 10 -8 8 -17 -1 -10 -8 -17
-15 -15 -6 1 -9 -2 -6 -7 3 -5 -1 -14 -9 -21 -8 -7 -12 -17 -9 -22 4 -5 21 4
38 21 18 17 35 29 39 26 4 -3 5 -2 2 2 -3 3 5 18 17 32 l23 25 -29 -18 c-37
-23 -59 -7 -31 24 26 29 13 25 -15 -5z m0 -68 c0 -2 -10 -12 -22 -23 l-23 -19
19 23 c18 21 26 27 26 19z"/>
<path d="M663 2245 c0 -8 4 -12 9 -9 5 3 6 10 3 15 -9 13 -12 11 -12 -6z"/>
<path d="M946 2253 c-4 -5 -12 -8 -17 -8 -5 0 -8 -4 -6 -10 1 -5 10 -9 20 -8
12 2 16 -1 10 -10 -4 -6 7 -1 24 13 17 14 29 27 27 29 -2 2 -10 -2 -19 -9 -10
-8 -15 -9 -15 -1 0 13 -13 15 -24 4z"/>
<path d="M1269 2243 c-13 -16 -12 -17 4 -4 9 7 17 15 17 17 0 8 -8 3 -21 -13z"/>
<path d="M1235 2240 c3 -5 8 -10 11 -10 2 0 4 5 4 10 0 6 -5 10 -11 10 -5 0
-7 -4 -4 -10z"/>
<path d="M1443 2221 c2 -10 1 -25 -4 -33 -5 -10 -4 -15 5 -15 8 0 12 6 9 13
-2 6 1 15 8 20 7 4 10 3 6 -3 -4 -6 0 -18 7 -28 12 -17 13 -16 12 12 -1 21 -8
33 -25 41 -20 10 -23 9 -18 -7z"/>
<path d="M2369 2231 c12 -8 51 -4 51 5 0 2 -15 4 -32 4 -23 0 -29 -3 -19 -9z"/>
<path d="M2573 2225 c0 -8 4 -12 9 -9 5 3 6 10 3 15 -9 13 -12 11 -12 -6z"/>
<path d="M795 2220 c4 -6 11 -8 16 -5 14 9 11 15 -7 15 -8 0 -12 -5 -9 -10z"/>
<path d="M1506 2218 c3 -4 11 -5 19 -1 21 7 19 12 -4 10 -11 0 -18 -5 -15 -9z"/>
<path d="M1900 2220 c0 -5 -6 -10 -14 -10 -8 0 -17 -7 -20 -16 -4 -11 2 -10
24 6 32 22 37 30 20 30 -5 0 -10 -4 -10 -10z"/>
<path d="M910 2205 c5 -6 7 -14 5 -17 -3 -3 9 -4 26 -2 45 5 44 8 -1 21 -31 8
-38 8 -30 -2z"/>
<path d="M1050 2210 c-13 -8 -12 -10 3 -10 9 0 17 5 17 10 0 12 -1 12 -20 0z"/>
<path d="M1319 2203 c-13 -16 -12 -17 4 -4 9 7 17 15 17 17 0 8 -8 3 -21 -13z"/>
<path d="M2340 2212 c0 -14 11 -21 26 -15 8 3 11 9 8 14 -7 11 -34 12 -34 1z"/>
<path d="M2520 2210 c-9 -6 -10 -10 -3 -10 6 0 15 5 18 10 8 12 4 12 -15 0z"/>
<path d="M875 2200 c-4 -6 -10 -8 -15 -5 -5 3 -11 1 -14 -4 -8 -13 22 -7 36 7
7 7 9 12 6 12 -4 0 -10 -5 -13 -10z"/>
<path d="M1004 2199 c-3 -5 2 -9 10 -9 9 0 15 -5 14 -11 -2 -6 4 -14 12 -16
12 -4 13 -3 1 5 -12 8 -11 11 2 13 13 3 11 7 -8 16 -14 6 -27 7 -31 2z"/>
<path d="M2594 2194 c2 -11 8 -19 15 -19 6 0 16 -7 21 -15 5 -8 10 -10 10 -4
0 6 -11 21 -24 33 -22 21 -24 21 -22 5z"/>
<path d="M1505 2190 c-3 -6 1 -7 9 -4 18 7 21 14 7 14 -6 0 -13 -4 -16 -10z"/>
<path d="M2276 2188 c3 -5 10 -6 15 -3 13 9 11 12 -6 12 -8 0 -12 -4 -9 -9z"/>
<path d="M2311 2181 c-8 -5 -9 -11 -3 -15 5 -3 12 1 16 9 6 17 6 18 -13 6z"/>
<path d="M775 2170 c-4 -6 -11 -7 -17 -4 -7 4 -8 2 -4 -4 7 -12 36 -5 36 9 0
12 -7 11 -15 -1z"/>
<path d="M1657 2163 c3 -7 6 -13 8 -13 2 0 5 6 8 13 3 8 -1 14 -8 14 -7 0 -11
-6 -8 -14z"/>
<path d="M1525 2160 c-3 -5 -1 -10 4 -10 6 0 11 5 11 10 0 6 -2 10 -4 10 -3 0
-8 -4 -11 -10z"/>
<path d="M2094 2148 c4 -13 0 -18 -14 -18 -10 0 -22 -5 -26 -11 -5 -9 1 -10
22 -5 37 10 38 11 24 33 -10 16 -11 16 -6 1z"/>
<path d="M2195 2150 c-3 -5 -1 -10 4 -10 6 0 11 5 11 10 0 6 -2 10 -4 10 -3 0
-8 -4 -11 -10z"/>
<path d="M2345 2140 c4 -6 11 -8 16 -5 14 9 11 15 -7 15 -8 0 -12 -5 -9 -10z"/>
<path d="M774 2118 l-19 -23 23 19 c12 11 22 21 22 23 0 8 -8 2 -26 -19z"/>
<path d="M1060 2125 c12 -14 60 -17 60 -4 0 7 -36 19 -59 19 -11 0 -11 -3 -1
-15z"/>
<path d="M2230 2130 c0 -5 7 -7 15 -4 8 4 15 8 15 10 0 2 -7 4 -15 4 -8 0 -15
-4 -15 -10z"/>
<path d="M2621 2114 c13 -14 23 -28 21 -32 -1 -3 5 -7 14 -8 11 -2 6 9 -17 32
-18 19 -35 34 -38 34 -2 0 6 -12 20 -26z"/>
<path d="M912 2122 c-8 -5 1 -8 22 -8 19 1 32 4 29 9 -6 9 -35 9 -51 -1z"/>
<path d="M1610 2120 c0 -5 5 -10 11 -10 5 0 7 5 4 10 -3 6 -8 10 -11 10 -2 0
-4 -4 -4 -10z"/>
<path d="M2143 2123 c9 -2 23 -2 30 0 6 3 -1 5 -18 5 -16 0 -22 -2 -12 -5z"/>
<path d="M990 2110 c-8 -5 -10 -10 -5 -10 6 0 17 5 25 10 8 5 11 10 5 10 -5 0
-17 -5 -25 -10z"/>
<path d="M2373 2095 c-6 -14 -7 -23 -2 -19 13 8 31 44 22 44 -4 0 -13 -11 -20
-25z"/>
<path d="M2514 2101 c16 -18 36 -20 36 -5 0 3 -4 2 -10 -1 -5 -3 -10 -2 -10 3
0 6 -8 13 -17 16 -15 6 -15 5 1 -13z"/>
<path d="M875 2099 c-4 -6 -5 -12 -2 -15 2 -3 7 2 10 11 7 17 1 20 -8 4z"/>
<path d="M1790 2106 c0 -2 7 -7 16 -10 8 -3 12 -2 9 4 -6 10 -25 14 -25 6z"/>
<path d="M1978 2103 c7 -3 16 -2 19 1 4 3 -2 6 -13 5 -11 0 -14 -3 -6 -6z"/>
<path d="M938 2093 c7 -3 16 -2 19 1 4 3 -2 6 -13 5 -11 0 -14 -3 -6 -6z"/>
<path d="M1190 2091 c0 -6 4 -13 10 -16 6 -3 7 1 4 9 -7 18 -14 21 -14 7z"/>
<path d="M2015 2091 c3 -2 0 -10 -6 -18 -9 -10 -8 -13 5 -13 9 0 16 7 16 15 0
8 4 15 10 15 5 0 7 -8 4 -17 -5 -15 -4 -15 4 -3 14 18 7 29 -18 27 -10 -1 -17
-3 -15 -6z"/>
<path d="M597 2072 c-15 -16 -15 -19 -2 -19 8 0 13 3 10 5 -3 3 0 11 6 19 17
20 5 16 -14 -5z"/>
<path d="M894 2079 c-4 -7 -3 -9 4 -5 6 3 12 0 14 -7 2 -12 8 -12 33 0 28 12
28 13 5 11 -14 -1 -30 1 -37 5 -6 4 -15 2 -19 -4z"/>
<path d="M1065 2080 c3 -5 15 -10 25 -10 10 0 22 5 25 10 4 6 -7 10 -25 10
-18 0 -29 -4 -25 -10z"/>
<path d="M1875 2080 c-3 -5 -1 -10 4 -10 6 0 11 5 11 10 0 6 -2 10 -4 10 -3 0
-8 -4 -11 -10z"/>
<path d="M2074 2078 c-3 -4 4 -8 15 -8 12 0 21 4 21 8 0 5 -7 9 -15 9 -9 0
-18 -4 -21 -9z"/>
<path d="M2440 2081 c0 -6 4 -13 10 -16 6 -3 7 1 4 9 -7 18 -14 21 -14 7z"/>
<path d="M1130 2070 c0 -5 9 -10 20 -10 11 0 20 -4 20 -10 0 -5 7 -10 17 -10
13 0 11 4 -7 20 -25 21 -50 26 -50 10z"/>
<path d="M2185 2070 c-19 -7 -19 -8 -2 -15 15 -6 15 -10 5 -24 -8 -10 -5 -9
10 3 15 13 19 22 11 27 -8 5 -7 8 2 12 8 3 10 5 4 6 -5 0 -19 -4 -30 -9z"/>
<path d="M1735 2059 c-10 -15 1 -22 24 -14 12 3 19 11 16 16 -8 12 -32 11 -40
-2z"/>
<path d="M1415 2050 c-4 -6 12 -10 42 -10 35 0 44 3 33 10 -20 13 -67 13 -75
0z"/>
<path d="M2295 2050 c3 -5 8 -10 11 -10 2 0 4 5 4 10 0 6 -5 10 -11 10 -5 0
-7 -4 -4 -10z"/>
<path d="M2380 2055 c0 -5 5 -17 10 -25 5 -8 10 -10 10 -5 0 6 -5 17 -10 25
-5 8 -10 11 -10 5z"/>
<path d="M550 2041 c0 -6 4 -13 10 -16 6 -3 7 1 4 9 -7 18 -14 21 -14 7z"/>
<path d="M793 2010 c0 -25 2 -35 4 -22 2 12 2 32 0 45 -2 12 -4 2 -4 -23z"/>
<path d="M955 2035 c-16 -8 -23 -14 -14 -15 8 0 24 7 35 15 23 18 18 18 -21 0z"/>
<path d="M1023 2043 c9 -2 23 -2 30 0 6 3 -1 5 -18 5 -16 0 -22 -2 -12 -5z"/>
<path d="M1080 2040 c-12 -8 -9 -10 13 -10 19 0 26 -4 21 -12 -4 -7 -3 -8 5
-4 9 6 9 11 0 22 -13 16 -19 17 -39 4z"/>
<path d="M2097 2039 c7 -7 15 -10 18 -7 3 3 -2 9 -12 12 -14 6 -15 5 -6 -5z"/>
<path d="M1830 2033 c0 -6 8 -17 18 -24 16 -13 16 -13 2 6 -8 11 -16 22 -17
24 -2 2 -3 0 -3 -6z"/>
<path d="M2208 2021 c-26 -31 -30 -47 -4 -19 22 24 25 25 28 9 2 -12 8 -16 20
-12 14 5 13 8 -6 23 -21 15 -24 15 -38 -1z"/>
<path d="M2441 2037 c2 -1 15 -11 29 -22 l25 -20 -19 23 c-11 12 -24 22 -29
22 -6 0 -8 -1 -6 -3z"/>
<path d="M578 2016 c-10 -7 -18 -16 -18 -19 0 -12 28 4 34 19 6 17 6 17 -16 0z"/>
<path d="M1000 2005 c0 -15 4 -24 10 -20 6 3 10 12 10 20 0 8 -4 17 -10 20 -6
4 -10 -5 -10 -20z"/>
<path d="M1293 2024 c4 -4 2 -13 -4 -20 -8 -9 -5 -11 10 -7 25 7 27 19 4 27
-10 4 -14 4 -10 0z"/>
<path d="M2626 2022 c-3 -5 1 -9 9 -9 8 0 12 4 9 9 -3 4 -7 8 -9 8 -2 0 -6 -4
-9 -8z"/>
<path d="M700 2000 c-6 -11 -8 -20 -6 -20 3 0 10 9 16 20 6 11 8 20 6 20 -3 0
-10 -9 -16 -20z"/>
<path d="M820 2011 c0 -5 -3 -18 -6 -28 -3 -12 -1 -10 8 5 11 18 16 20 28 10
12 -11 12 -10 1 5 -14 18 -31 23 -31 8z"/>
<path d="M915 2010 c34 -21 46 -42 33 -57 -8 -11 -7 -12 6 -7 9 3 16 8 16 10
0 11 -24 54 -31 54 -4 0 -16 3 -26 6 -15 5 -15 3 2 -6z"/>
<path d="M967 2013 c-3 -5 1 -19 9 -33 l14 -25 -6 30 c-8 35 -10 39 -17 28z"/>
<path d="M1629 2003 c-13 -16 -12 -17 4 -4 9 7 17 15 17 17 0 8 -8 3 -21 -13z"/>
<path d="M2690 2010 c0 -5 5 -10 11 -10 5 0 7 5 4 10 -3 6 -8 10 -11 10 -2 0
-4 -4 -4 -10z"/>
<path d="M501 1994 c0 -11 3 -14 6 -6 3 7 2 16 -1 19 -3 4 -6 -2 -5 -13z"/>
<path d="M1574 1993 c16 -20 36 -23 36 -6 0 4 -3 3 -7 0 -3 -4 -16 1 -27 10
-21 18 -21 18 -2 -4z"/>
<path d="M1748 2003 c7 -3 16 -2 19 1 4 3 -2 6 -13 5 -11 0 -14 -3 -6 -6z"/>
<path d="M532 1975 c0 -16 2 -22 5 -12 2 9 2 23 0 30 -3 6 -5 -1 -5 -18z"/>
<path d="M725 1974 c-9 -15 -12 -23 -6 -20 11 7 35 46 28 46 -3 0 -12 -12 -22
-26z"/>
<path d="M1136 1988 c3 -5 10 -6 15 -3 13 9 11 12 -6 12 -8 0 -12 -4 -9 -9z"/>
<path d="M1228 1993 c7 -3 16 -2 19 1 4 3 -2 6 -13 5 -11 0 -14 -3 -6 -6z"/>
<path d="M1855 1989 c-15 -6 -16 -8 -4 -8 22 -1 48 -31 28 -31 -9 -1 -8 -4 4
-11 9 -6 15 -14 13 -18 -3 -4 1 -8 9 -8 20 0 19 13 -1 21 -8 3 -13 10 -9 15 3
5 1 12 -5 16 -6 4 -8 10 -5 15 8 13 -8 18 -30 9z"/>
<path d="M1910 1996 c0 -2 9 -6 20 -9 11 -3 20 -1 20 4 0 5 -9 9 -20 9 -11 0
-20 -2 -20 -4z"/>
<path d="M2098 1989 c15 -6 30 -5 40 1 13 7 8 9 -23 9 -35 0 -37 -1 -17 -10z"/>
<path d="M2641 1987 c-8 -10 -7 -14 4 -14 8 0 15 6 15 14 0 7 -2 13 -4 13 -2
0 -9 -6 -15 -13z"/>
<path d="M2596 1982 c-3 -5 10 -24 29 -42 35 -34 41 -33 25 5 -5 11 -9 14 -9
6 -1 -11 -4 -11 -16 -1 -8 7 -13 16 -10 20 3 5 1 11 -4 14 -5 4 -12 2 -15 -2z"/>
<path d="M565 1970 c3 -5 1 -10 -4 -12 -5 -1 -3 -9 5 -16 12 -11 14 -9 14 8 0
14 4 19 13 14 6 -4 8 -3 4 1 -10 12 -39 16 -32 5z"/>
<path d="M837 1969 c7 -7 15 -10 18 -7 3 3 -2 9 -12 12 -14 6 -15 5 -6 -5z"/>
<path d="M1220 1969 c0 -5 11 -9 25 -9 14 0 25 2 25 4 0 2 -11 6 -25 8 -14 3
-25 1 -25 -3z"/>
<path d="M1384 1958 l-19 -23 23 19 c21 18 27 26 19 26 -2 0 -12 -10 -23 -22z"/>
<path d="M1975 1970 c3 -5 8 -10 11 -10 2 0 4 5 4 10 0 6 -5 10 -11 10 -5 0
-7 -4 -4 -10z"/>
<path d="M2505 1960 c10 -11 20 -20 23 -20 3 0 -3 9 -13 20 -10 11 -20 20 -23
20 -3 0 3 -9 13 -20z"/>
<path d="M1317 1944 c-15 -13 -24 -24 -20 -24 11 1 57 40 52 44 -2 3 -17 -7
-32 -20z"/>
<path d="M2120 1955 c0 -8 4 -15 8 -15 5 0 9 7 9 15 0 8 -4 15 -9 15 -4 0 -8
-7 -8 -15z"/>
<path d="M1017 1949 c7 -7 15 -10 18 -7 3 3 -2 9 -12 12 -14 6 -15 5 -6 -5z"/>
<path d="M2020 1949 c0 -5 5 -7 10 -4 6 3 10 8 10 11 0 2 -4 4 -10 4 -5 0 -10
-5 -10 -11z"/>
<path d="M786 1943 c5 -5 12 -12 16 -18 4 -6 8 -2 8 8 0 9 -7 17 -17 17 -9 0
-12 -3 -7 -7z"/>
<path d="M1075 1940 c-3 -5 1 -10 9 -10 8 0 18 5 21 10 3 6 -1 10 -9 10 -8 0
-18 -4 -21 -10z"/>
<path d="M2484 1932 c23 -26 23 -26 23 -7 0 8 -3 13 -5 10 -3 -3 -12 1 -21 7
-10 8 -9 4 3 -10z"/>
<path d="M361 1924 c0 -11 3 -14 6 -6 3 7 2 16 -1 19 -3 4 -6 -2 -5 -13z"/>
<path d="M924 1923 c-12 -2 -30 -14 -40 -26 -16 -19 -16 -20 -1 -8 22 17 22 4
0 -23 -10 -12 2 -3 25 19 35 33 50 50 40 44 -2 -1 -13 -4 -24 -6z"/>
<path d="M1116 1921 c-17 -6 -17 -8 -3 -14 8 -3 21 1 27 9 13 15 6 17 -24 5z"/>
<path d="M2590 1920 c0 -6 7 -10 15 -10 8 0 15 2 15 4 0 2 -7 6 -15 10 -8 3
-15 1 -15 -4z"/>
<path d="M624 1913 c4 -7 2 -13 -3 -13 -6 0 -11 -4 -11 -8 0 -5 6 -9 14 -9 15
0 16 21 1 34 -4 4 -5 2 -1 -4z"/>
<path d="M972 1908 c2 -6 10 -13 16 -14 7 -1 8 0 2 3 -5 2 -8 9 -4 14 3 5 0 9
-6 9 -7 0 -10 -5 -8 -12z"/>
<path d="M2020 1915 c0 -7 30 -13 34 -7 3 4 -4 9 -15 9 -10 1 -19 0 -19 -2z"/>
<path d="M1331 1894 c0 -11 3 -14 6 -6 3 7 2 16 -1 19 -3 4 -6 -2 -5 -13z"/>
<path d="M2143 1895 c0 -8 4 -12 9 -9 5 3 6 10 3 15 -9 13 -12 11 -12 -6z"/>
<path d="M2290 1902 c0 -5 7 -9 15 -9 8 0 12 4 9 9 -3 4 -9 8 -15 8 -5 0 -9
-4 -9 -8z"/>
<path d="M1040 1889 c0 -5 5 -7 10 -4 6 3 10 8 10 11 0 2 -4 4 -10 4 -5 0 -10
-5 -10 -11z"/>
<path d="M1155 1880 c10 -11 20 -20 23 -20 3 0 -3 9 -13 20 -10 11 -20 20 -23
20 -3 0 3 -9 13 -20z"/>
<path d="M1230 1896 c0 -2 7 -6 15 -10 8 -3 15 -1 15 4 0 6 -7 10 -15 10 -8 0
-15 -2 -15 -4z"/>
<path d="M1468 1893 c7 -3 16 -2 19 1 4 3 -2 6 -13 5 -11 0 -14 -3 -6 -6z"/>
<path d="M1872 1880 c0 -14 2 -19 5 -12 2 6 2 18 0 25 -3 6 -5 1 -5 -13z"/>
<path d="M2620 1891 c0 -6 4 -13 10 -16 6 -3 7 1 4 9 -7 18 -14 21 -14 7z"/>
<path d="M675 1880 c-3 -5 -1 -10 4 -10 6 0 11 5 11 10 0 6 -2 10 -4 10 -3 0
-8 -4 -11 -10z"/>
<path d="M945 1870 c-10 -11 -16 -20 -14 -21 2 0 12 -2 21 -4 21 -4 33 11 18
20 -6 4 -8 11 -5 16 10 16 -1 10 -20 -11z m19 -8 c3 -5 -1 -9 -9 -9 -8 0 -12
4 -9 9 3 4 7 8 9 8 2 0 6 -4 9 -8z"/>
<path d="M2601 1874 c0 -11 3 -14 6 -6 3 7 2 16 -1 19 -3 4 -6 -2 -5 -13z"/>
<path d="M481 1864 c0 -11 3 -14 6 -6 3 7 2 16 -1 19 -3 4 -6 -2 -5 -13z"/>
<path d="M721 1846 c-24 -24 -29 -36 -20 -41 7 -5 10 -4 6 2 -4 6 9 25 28 42
20 17 32 31 27 31 -4 0 -23 -15 -41 -34z"/>
<path d="M1003 1863 c0 -9 4 -10 14 -2 7 6 13 12 13 14 0 1 -6 2 -13 2 -8 0
-14 -6 -14 -14z"/>
<path d="M1077 1869 c7 -7 15 -10 18 -7 3 3 -2 9 -12 12 -14 6 -15 5 -6 -5z"/>
<path d="M1981 1859 c13 -10 31 -19 39 -19 24 0 -15 33 -41 35 -21 2 -21 1 2
-16z"/>
<path d="M2450 1871 c0 -6 4 -13 10 -16 6 -3 7 1 4 9 -7 18 -14 21 -14 7z"/>
<path d="M1250 1859 c0 -5 5 -7 10 -4 6 3 10 8 10 11 0 2 -4 4 -10 4 -5 0 -10
-5 -10 -11z"/>
<path d="M2173 1862 c-9 -6 -6 -11 7 -20 10 -6 21 -8 24 -3 8 13 -18 31 -31
23z"/>
<path d="M2273 1849 c-2 -23 3 -25 10 -4 4 8 3 16 -1 19 -4 3 -9 -4 -9 -15z"/>
<path d="M566 1843 c-6 -14 -5 -15 5 -6 7 7 10 15 7 18 -3 3 -9 -2 -12 -12z"/>
<path d="M1015 1841 c-3 -5 -2 -12 3 -15 5 -3 9 1 9 9 0 17 -3 19 -12 6z"/>
<path d="M1056 1841 c-11 -4 -15 -10 -10 -13 5 -4 18 0 29 8 20 15 12 17 -19
5z"/>
<path d="M1867 1839 c7 -7 15 -10 18 -7 3 3 -2 9 -12 12 -14 6 -15 5 -6 -5z"/>
<path d="M1948 1843 c7 -3 16 -2 19 1 4 3 -2 6 -13 5 -11 0 -14 -3 -6 -6z"/>
<path d="M1165 1829 c-4 -6 -5 -12 -2 -15 2 -3 7 2 10 11 7 17 1 20 -8 4z"/>
<path d="M2130 1830 c-9 -6 -10 -10 -3 -10 6 0 15 5 18 10 8 12 4 12 -15 0z"/>
<path d="M2606 1825 c4 -8 8 -15 10 -15 2 0 4 7 4 15 0 8 -4 15 -10 15 -5 0
-7 -7 -4 -15z"/>
<path d="M2815 1830 c-3 -5 -1 -10 4 -10 6 0 11 5 11 10 0 6 -2 10 -4 10 -3 0
-8 -4 -11 -10z"/>
<path d="M903 1809 c-2 -23 3 -25 10 -4 4 8 3 16 -1 19 -4 3 -9 -4 -9 -15z"/>
<path d="M1956 1822 c-3 -5 1 -9 9 -9 8 0 12 4 9 9 -3 4 -7 8 -9 8 -2 0 -6 -4
-9 -8z"/>
<path d="M2155 1819 c-4 -6 -5 -12 -2 -15 2 -3 7 2 10 11 7 17 1 20 -8 4z"/>
<path d="M2540 1820 c0 -5 5 -10 11 -10 5 0 7 5 4 10 -3 6 -8 10 -11 10 -2 0
-4 -4 -4 -10z"/>
<path d="M495 1810 c-3 -5 -1 -10 4 -10 6 0 11 5 11 10 0 6 -2 10 -4 10 -3 0
-8 -4 -11 -10z"/>
<path d="M1235 1809 c-11 -16 -1 -19 13 -3 7 8 8 14 3 14 -5 0 -13 -5 -16 -11z"/>
<path d="M1809 1803 c-13 -16 -12 -17 4 -4 9 7 17 15 17 17 0 8 -8 3 -21 -13z"/>
<path d="M2440 1811 c0 -6 4 -13 10 -16 6 -3 7 1 4 9 -7 18 -14 21 -14 7z"/>
<path d="M610 1806 c0 -2 8 -10 18 -17 15 -13 16 -12 3 4 -13 16 -21 21 -21
13z"/>
<path d="M1516 1779 c-11 -11 -15 -19 -9 -19 12 0 38 28 32 34 -2 2 -13 -5
-23 -15z"/>
<path d="M1698 1793 c12 -2 32 -2 45 0 12 2 2 4 -23 4 -25 0 -35 -2 -22 -4z"/>
<path d="M2569 1783 c-13 -16 -12 -17 4 -4 9 7 17 15 17 17 0 8 -8 3 -21 -13z"/>
<path d="M2722 1779 c-8 -12 -9 -18 -4 -15 6 3 13 0 15 -6 3 -7 6 -1 6 15 1
33 0 33 -17 6z"/>
<path d="M476 1773 c7 -4 14 -17 17 -28 5 -16 5 -15 4 4 -1 14 -9 26 -17 28
-10 3 -11 2 -4 -4z"/>
<path d="M1728 1773 c7 -3 16 -2 19 1 4 3 -2 6 -13 5 -11 0 -14 -3 -6 -6z"/>
<path d="M2110 1776 c0 -2 8 -10 18 -17 15 -13 16 -12 3 4 -13 16 -21 21 -21
13z"/>
<path d="M1308 1759 c-8 -6 -2 -9 19 -9 17 0 39 -3 47 -6 12 -5 15 -2 10 9 -6
17 -53 20 -76 6z"/>
<path d="M1590 1761 c0 -6 4 -13 10 -16 6 -3 7 1 4 9 -7 18 -14 21 -14 7z"/>
<path d="M1835 1761 c-3 -5 -1 -12 4 -15 5 -3 11 1 15 9 6 16 -9 21 -19 6z"/>
<path d="M2575 1760 c-3 -6 1 -7 9 -4 18 7 21 14 7 14 -6 0 -13 -4 -16 -10z"/>
<path d="M2690 1755 c0 -8 4 -15 10 -15 5 0 7 7 4 15 -4 8 -8 15 -10 15 -2 0
-4 -7 -4 -15z"/>
<path d="M590 1745 c0 -8 2 -15 4 -15 2 0 6 7 10 15 3 8 1 15 -4 15 -6 0 -10
-7 -10 -15z"/>
<path d="M1950 1750 c0 -5 5 -10 11 -10 5 0 7 5 4 10 -3 6 -8 10 -11 10 -2 0
-4 -4 -4 -10z"/>
<path d="M2017 1743 c3 -7 6 -13 8 -13 2 0 5 6 8 13 3 8 -1 14 -8 14 -7 0 -11
-6 -8 -14z"/>
<path d="M950 1745 c0 -5 5 -17 10 -25 5 -8 10 -10 10 -5 0 6 -5 17 -10 25 -5
8 -10 11 -10 5z"/>
<path d="M2921 1734 c0 -11 3 -14 6 -6 3 7 2 16 -1 19 -3 4 -6 -2 -5 -13z"/>
<path d="M1490 1729 c0 -5 5 -7 10 -4 6 3 10 8 10 11 0 2 -4 4 -10 4 -5 0 -10
-5 -10 -11z"/>
<path d="M1866 1724 c-9 -8 -16 -11 -16 -5 0 6 -7 11 -15 11 -8 0 -15 -4 -15
-10 0 -5 5 -10 11 -10 24 0 -4 -20 -29 -21 -25 0 -25 -1 8 -13 19 -7 37 -10
40 -8 3 3 -1 7 -8 9 -9 4 -3 15 20 34 18 15 30 28 26 29 -4 0 -14 -7 -22 -16z"/>
<path d="M1981 1717 c-13 -21 -12 -21 5 -5 10 10 16 20 13 22 -3 3 -11 -5 -18
-17z"/>
<path d="M2256 1727 c3 -10 9 -15 12 -12 3 3 0 11 -7 18 -10 9 -11 8 -5 -6z"/>
<path d="M1192 1710 c0 -14 2 -19 5 -12 2 6 2 18 0 25 -3 6 -5 1 -5 -13z"/>
<path d="M1295 1720 c-4 -6 7 -10 27 -9 27 0 30 2 13 9 -27 12 -33 12 -40 0z"/>
<path d="M1385 1720 c3 -5 10 -10 16 -10 5 0 9 5 9 10 0 6 -7 10 -16 10 -8 0
-12 -4 -9 -10z"/>
<path d="M1770 1726 c0 -3 9 -10 20 -16 11 -6 20 -8 20 -6 0 3 -9 10 -20 16
-11 6 -20 8 -20 6z"/>
<path d="M1900 1720 c0 -5 5 -10 11 -10 5 0 7 5 4 10 -3 6 -8 10 -11 10 -2 0
-4 -4 -4 -10z"/>
<path d="M486 1708 c3 -4 9 -8 15 -8 5 0 9 4 9 8 0 5 -7 9 -15 9 -8 0 -12 -4
-9 -9z"/>
<path d="M980 1695 c0 -14 2 -25 4 -25 2 0 6 11 8 25 3 14 1 25 -3 25 -5 0 -9
-11 -9 -25z"/>
<path d="M1657 1713 c-3 -5 -1 -17 3 -27 5 -16 8 -17 15 -6 5 9 4 15 -3 18 -7
2 -10 8 -6 13 3 5 3 9 0 9 -3 0 -7 -3 -9 -7z"/>
<path d="M1367 1695 c3 -8 9 -12 14 -9 12 7 11 11 -5 17 -10 4 -13 1 -9 -8z"/>
<path d="M1446 1688 c-9 -12 -16 -27 -16 -33 0 -5 8 2 18 18 10 15 22 24 25
20 4 -3 7 -1 7 5 0 19 -18 14 -34 -10z"/>
<path d="M1691 1694 c0 -11 3 -14 6 -6 3 7 2 16 -1 19 -3 4 -6 -2 -5 -13z"/>
<path d="M1880 1700 c0 -6 7 -10 15 -10 8 0 15 2 15 4 0 2 -7 6 -15 10 -8 3
-15 1 -15 -4z"/>
<path d="M1989 1693 c-13 -16 -12 -17 4 -4 9 7 17 15 17 17 0 8 -8 3 -21 -13z"/>
<path d="M348 1693 c7 -3 16 -2 19 1 4 3 -2 6 -13 5 -11 0 -14 -3 -6 -6z"/>
<path d="M755 1670 c-9 -16 -11 -30 -6 -30 5 0 14 14 20 30 5 17 8 30 6 30 -3
0 -11 -13 -20 -30z"/>
<path d="M1010 1680 c0 -11 2 -20 4 -20 2 0 6 9 9 20 3 11 1 20 -4 20 -5 0 -9
-9 -9 -20z"/>
<path d="M1344 1682 c11 -12 14 -22 8 -22 -7 0 -12 -4 -12 -8 0 -5 7 -9 15 -9
8 0 12 4 9 8 -2 4 0 9 5 11 5 1 -3 12 -17 22 l-27 20 19 -22z"/>
<path d="M1505 1691 c3 -5 -4 -12 -15 -16 -11 -3 -20 -11 -20 -16 0 -11 21 -1
55 25 20 15 20 15 -3 16 -13 0 -21 -4 -17 -9z"/>
<path d="M2226 1685 c4 -8 8 -15 10 -15 2 0 4 7 4 15 0 8 -4 15 -10 15 -5 0
-7 -7 -4 -15z"/>
<path d="M2421 1695 c1 -22 16 -48 22 -38 3 5 0 19 -8 29 -8 10 -14 15 -14 9z"/>
<path d="M1215 1680 c-3 -5 -13 -6 -21 -3 -12 4 -15 0 -12 -16 1 -12 6 -22 11
-21 4 0 6 2 5 4 -2 2 6 13 16 25 11 12 16 21 13 21 -3 0 -8 -4 -12 -10z"/>
<path d="M1288 1678 c-14 -12 -13 -15 3 -30 21 -20 26 -10 7 11 -11 11 -9 13
10 8 19 -4 21 -3 11 9 -14 17 -12 17 -31 2z"/>
<path d="M1396 1681 c-4 -5 1 -8 9 -7 21 3 31 16 12 16 -9 0 -18 -4 -21 -9z"/>
<path d="M1726 1675 c4 -8 11 -15 16 -15 6 0 5 6 -2 15 -7 8 -14 15 -16 15 -2
0 -1 -7 2 -15z"/>
<path d="M2370 1681 c0 -6 4 -13 10 -16 6 -3 7 1 4 9 -7 18 -14 21 -14 7z"/>
<path d="M1995 1670 c-3 -6 1 -7 9 -4 18 7 21 14 7 14 -6 0 -13 -4 -16 -10z"/>
<path d="M2060 1670 c-9 -6 -10 -10 -3 -10 6 0 15 5 18 10 8 12 4 12 -15 0z"/>
<path d="M922 1640 c0 -19 2 -27 5 -17 2 9 2 25 0 35 -3 9 -5 1 -5 -18z"/>
<path d="M1869 1659 c5 -6 7 -17 5 -24 -3 -7 -1 -15 4 -19 13 -8 8 33 -6 44
-8 7 -9 7 -3 -1z"/>
<path d="M2180 1663 c0 -4 5 -15 10 -23 8 -13 10 -13 10 2 0 9 -4 20 -10 23
-5 3 -10 3 -10 -2z"/>
<path d="M1105 1649 c-4 -6 -4 -13 -1 -16 3 -4 6 -1 6 6 0 7 5 9 12 5 7 -4 8
-3 4 4 -9 15 -13 15 -21 1z"/>
<path d="M1905 1649 c-4 -6 -5 -12 -2 -15 2 -3 7 2 10 11 7 17 1 20 -8 4z"/>
<path d="M2074 1652 c-6 -5 -4 -13 8 -24 19 -19 21 -15 10 14 -4 10 -12 14
-18 10z"/>
<path d="M832 1621 c-6 -17 -7 -31 -3 -31 10 0 25 50 18 57 -3 2 -9 -10 -15
-26z"/>
<path d="M1280 1630 c6 -11 13 -20 16 -20 2 0 0 9 -6 20 -6 11 -13 20 -16 20
-2 0 0 -9 6 -20z"/>
<path d="M881 1626 c-9 -11 -9 -16 0 -22 7 -4 9 -3 5 4 -3 5 0 12 6 15 7 2 10
7 7 11 -3 4 -12 0 -18 -8z"/>
<path d="M1239 1624 c-19 -23 -20 -44 -1 -37 11 5 13 3 7 -7 -6 -9 -4 -11 5
-5 10 6 12 4 7 -8 -4 -11 1 -20 16 -27 19 -10 20 -9 6 2 -9 7 -14 18 -12 25 2
6 -6 18 -19 27 -20 15 -15 22 14 17 4 0 5 6 2 14 -8 19 -9 19 -25 -1z"/>
<path d="M1680 1636 c0 -2 9 -6 20 -9 11 -3 18 -1 14 4 -5 9 -34 13 -34 5z"/>
<path d="M1928 1610 c-14 -16 -22 -30 -17 -30 5 0 16 11 25 25 14 22 18 23 31
10 22 -22 29 -18 8 5 -10 11 -19 20 -19 20 -1 0 -13 -13 -28 -30z"/>
<path d="M365 1614 c71 -8 165 -8 165 -1 0 4 -44 6 -97 5 -54 0 -84 -3 -68 -4z"/>
<path d="M1020 1585 c0 -8 2 -15 4 -15 2 0 6 7 10 15 3 8 1 15 -4 15 -6 0 -10
-7 -10 -15z"/>
<path d="M1939 1583 c-13 -17 -13 -17 6 -3 11 8 22 16 24 17 2 2 0 3 -6 3 -6
0 -17 -8 -24 -17z"/>
<path d="M2081 1584 c0 -11 3 -14 6 -6 3 7 2 16 -1 19 -3 4 -6 -2 -5 -13z"/>
<path d="M1358 1573 c7 -3 16 -2 19 1 4 3 -2 6 -13 5 -11 0 -14 -3 -6 -6z"/>
<path d="M1614 1571 c19 -7 19 -8 -2 -13 -12 -4 -22 -2 -22 3 0 5 -8 9 -17 9
-17 -1 -17 -1 0 -11 10 -6 14 -15 10 -22 -4 -7 0 -6 10 2 20 16 23 2 5 -18
-10 -11 -10 -13 0 -7 7 5 12 1 13 -11 0 -14 2 -13 10 5 5 13 7 28 4 32 -3 5 0
10 7 12 17 6 0 28 -20 27 -14 0 -14 -2 2 -8z"/>
<path d="M1652 1569 c2 -7 10 -15 17 -17 8 -3 12 1 9 9 -2 7 -10 15 -17 17 -8
3 -12 -1 -9 -9z"/>
<path d="M1111 1554 c0 -11 3 -14 6 -6 3 7 2 16 -1 19 -3 4 -6 -2 -5 -13z"/>
<path d="M1455 1560 c-45 -6 -29 -15 18 -10 10 1 24 -4 32 -10 10 -8 15 -8 21
1 5 8 3 10 -7 5 -8 -4 -5 0 5 8 20 16 20 16 0 14 -10 0 -41 -4 -69 -8z"/>
<path d="M1692 1560 c3 -8 14 -14 26 -14 27 0 34 17 10 22 -10 2 -18 -2 -18
-10 0 -10 -3 -9 -11 2 -9 13 -10 13 -7 0z"/>
<path d="M2031 1554 c0 -11 3 -14 6 -6 3 7 2 16 -1 19 -3 4 -6 -2 -5 -13z"/>
<path d="M882 1535 c-6 -14 -8 -25 -3 -25 8 0 23 41 17 47 -1 2 -8 -8 -14 -22z"/>
<path d="M1770 1543 c0 -16 2 -16 11 -3 9 12 10 10 6 -8 -5 -19 -3 -21 9 -11
20 17 17 39 -6 39 -12 0 -20 -7 -20 -17z"/>
<path d="M1922 1543 c6 -7 14 -13 18 -13 3 0 7 6 7 13 0 7 -8 13 -18 13 -13 0
-15 -3 -7 -13z"/>
<path d="M1130 1546 c0 -2 7 -7 16 -10 8 -3 12 -2 9 4 -6 10 -25 14 -25 6z"/>
<path d="M591 1524 c0 -11 3 -14 6 -6 3 7 2 16 -1 19 -3 4 -6 -2 -5 -13z"/>
<path d="M702 1535 c4 -4 4 -13 -1 -19 -10 -14 -23 -62 -12 -50 4 5 12 21 19
36 9 21 8 29 -1 34 -7 4 -9 4 -5 -1z"/>
<path d="M1390 1536 c0 -2 11 -6 25 -8 13 -3 22 -1 19 3 -5 9 -44 13 -44 5z"/>
<path d="M2300 1530 c0 -5 5 -10 11 -10 5 0 7 5 4 10 -3 6 -8 10 -11 10 -2 0
-4 -4 -4 -10z"/>
<path d="M1175 1520 c3 -5 8 -10 11 -10 2 0 4 5 4 10 0 6 -5 10 -11 10 -5 0
-7 -4 -4 -10z"/>
<path d="M2488 1525 c-3 -6 0 -26 8 -45 7 -21 12 -27 12 -15 0 31 -13 71 -20
60z"/>
<path d="M1354 1505 c-3 -8 -4 -20 -2 -27 3 -7 7 -1 10 15 6 29 1 36 -8 12z"/>
<path d="M515 1500 c-3 -5 -1 -10 4 -10 6 0 11 5 11 10 0 6 -2 10 -4 10 -3 0
-8 -4 -11 -10z"/>
<path d="M1422 1498 c-7 -7 -12 -19 -11 -27 0 -10 4 -6 10 8 7 19 14 22 37 17
20 -5 23 -4 12 4 -20 13 -33 13 -48 -2z"/>
<path d="M1719 1508 c-5 -16 -3 -55 3 -52 4 3 7 16 6 29 -2 21 -6 31 -9 23z"/>
<path d="M1790 1491 c0 -6 4 -13 10 -16 6 -3 7 1 4 9 -7 18 -14 21 -14 7z"/>
<path d="M2612 1475 c0 -16 2 -22 5 -12 2 9 2 23 0 30 -3 6 -5 -1 -5 -18z"/>
<path d="M1210 1470 c0 -11 4 -20 9 -20 5 0 7 9 4 20 -3 11 -7 20 -9 20 -2 0
-4 -9 -4 -20z"/>
<path d="M1487 1483 c-11 -10 -8 -20 7 -26 10 -4 12 0 9 14 -6 21 -7 22 -16
12z"/>
<path d="M2062 1478 c-8 -8 -9 -15 -1 -25 13 -15 29 -17 29 -3 0 6 -3 9 -7 9
-20 -3 -24 2 -13 16 15 18 9 20 -8 3z"/>
<path d="M1594 1468 c-4 -7 -4 -10 1 -6 4 4 15 2 24 -5 14 -11 14 -10 2 6 -16
20 -18 21 -27 5z"/>
<path d="M1980 1471 c0 -7 -5 -9 -12 -5 -7 4 -10 4 -6 0 3 -4 10 -8 15 -8 17
0 33 -21 34 -47 2 -23 2 -24 6 -3 3 13 -4 33 -16 48 -12 15 -21 21 -21 15z"/>
<path d="M2673 1459 c-2 -23 3 -25 10 -4 4 8 3 16 -1 19 -4 3 -9 -4 -9 -15z"/>
<path d="M2277 1450 c3 -11 9 -17 15 -14 5 3 4 12 -3 20 -16 19 -18 18 -12 -6z"/>
<path d="M1548 1453 c6 -2 18 -2 25 0 6 3 1 5 -13 5 -14 0 -19 -2 -12 -5z"/>
<path d="M1658 1443 c6 -2 18 -2 25 0 6 3 1 5 -13 5 -14 0 -19 -2 -12 -5z"/>
<path d="M790 1420 c0 -11 2 -20 4 -20 2 0 6 9 9 20 3 11 1 20 -4 20 -5 0 -9
-9 -9 -20z"/>
<path d="M2397 1433 c-4 -3 -7 -11 -7 -17 0 -6 5 -5 12 2 6 6 9 14 7 17 -3 3
-9 2 -12 -2z"/>
<path d="M613 1365 c0 -38 2 -53 4 -32 2 20 2 52 0 70 -2 17 -4 1 -4 -38z"/>
<path d="M2471 1414 c0 -11 3 -14 6 -6 3 7 2 16 -1 19 -3 4 -6 -2 -5 -13z"/>
<path d="M2603 1357 c0 -48 4 -74 9 -69 6 6 6 36 0 78 l-9 69 0 -78z"/>
<path d="M2743 1375 c0 -33 2 -45 4 -27 2 18 2 45 0 60 -2 15 -4 0 -4 -33z"/>
<path d="M453 1355 c0 -27 2 -38 4 -22 2 15 2 37 0 50 -2 12 -4 0 -4 -28z"/>
<path d="M522 1375 c0 -16 2 -22 5 -12 2 9 2 23 0 30 -3 6 -5 -1 -5 -18z"/>
<path d="M1420 1390 c-9 -6 -10 -10 -3 -10 6 0 15 5 18 10 8 12 4 12 -15 0z"/>
<path d="M1780 1381 c19 -11 39 -16 45 -13 5 3 -4 12 -20 18 -46 20 -64 15
-25 -5z"/>
<path d="M935 1371 c-3 -5 -1 -12 5 -16 5 -3 10 1 10 9 0 18 -6 21 -15 7z"/>
<path d="M2250 1365 c0 -8 4 -15 10 -15 5 0 7 7 4 15 -4 8 -8 15 -10 15 -2 0
-4 -7 -4 -15z"/>
<path d="M593 1330 c0 -25 2 -35 4 -22 2 12 2 32 0 45 -2 12 -4 2 -4 -23z"/>
<path d="M1374 1355 c3 -8 1 -15 -4 -15 -6 0 -10 -5 -10 -10 0 -6 7 -6 19 2
19 11 18 38 -1 38 -6 0 -8 -7 -4 -15z"/>
<path d="M2582 1340 c0 -19 2 -27 5 -17 2 9 2 25 0 35 -3 9 -5 1 -5 -18z"/>
<path d="M2672 1350 c0 -14 2 -19 5 -12 2 6 2 18 0 25 -3 6 -5 1 -5 -13z"/>
<path d="M841 1344 c0 -11 3 -14 6 -6 3 7 2 16 -1 19 -3 4 -6 -2 -5 -13z"/>
<path d="M2010 1336 c0 -14 4 -27 8 -30 5 -3 6 8 4 25 -5 35 -12 38 -12 5z"/>
<path d="M2461 1344 c0 -11 3 -14 6 -6 3 7 2 16 -1 19 -3 4 -6 -2 -5 -13z"/>
<path d="M472 1330 c0 -14 2 -19 5 -12 2 6 2 18 0 25 -3 6 -5 1 -5 -13z"/>
<path d="M1167 1334 c4 -12 3 -15 -5 -10 -7 4 -12 3 -12 -2 0 -6 7 -12 15 -16
17 -6 22 29 5 39 -6 4 -7 -1 -3 -11z"/>
<path d="M2432 1330 c0 -14 2 -19 5 -12 2 6 2 18 0 25 -3 6 -5 1 -5 -13z"/>
<path d="M2481 1334 c0 -11 3 -14 6 -6 3 7 2 16 -1 19 -3 4 -6 -2 -5 -13z"/>
<path d="M763 1285 c0 -33 2 -45 4 -27 2 18 2 45 0 60 -2 15 -4 0 -4 -33z"/>
<path d="M1093 1333 c-18 -7 -16 -20 2 -20 8 0 15 6 15 14 0 7 -1 13 -2 12 -2
0 -9 -3 -15 -6z"/>
<path d="M1425 1330 c-3 -5 -2 -10 4 -10 5 0 13 5 16 10 3 6 2 10 -4 10 -5 0
-13 -4 -16 -10z"/>
<path d="M2401 1314 c0 -11 3 -14 6 -6 3 7 2 16 -1 19 -3 4 -6 -2 -5 -13z"/>
<path d="M1862 1300 c0 -14 2 -19 5 -12 2 6 2 18 0 25 -3 6 -5 1 -5 -13z"/>
<path d="M2381 1304 c0 -11 3 -14 6 -6 3 7 2 16 -1 19 -3 4 -6 -2 -5 -13z"/>
<path d="M2720 1287 c0 -20 4 -38 9 -42 6 -3 7 10 4 32 -8 50 -13 55 -13 10z"/>
<path d="M2066 1302 c-3 -5 1 -9 9 -9 8 0 12 4 9 9 -3 4 -7 8 -9 8 -2 0 -6 -4
-9 -8z"/>
<path d="M2190 1290 c0 -19 3 -21 12 -12 9 9 9 15 0 24 -9 9 -12 7 -12 -12z"/>
<path d="M997 1286 c-5 -12 -2 -28 8 -42 18 -28 25 -30 25 -8 0 8 -4 13 -9 9
-5 -3 -11 9 -13 27 -2 27 -4 29 -11 14z"/>
<path d="M1090 1284 c0 -8 5 -12 10 -9 6 3 10 10 10 16 0 5 -4 9 -10 9 -5 0
-10 -7 -10 -16z"/>
<path d="M1251 1284 c0 -11 3 -14 6 -6 3 7 2 16 -1 19 -3 4 -6 -2 -5 -13z"/>
<path d="M1181 1280 c0 -8 4 -24 9 -35 5 -13 9 -14 9 -5 0 8 -4 24 -9 35 -5
13 -9 14 -9 5z"/>
<path d="M1150 1270 c-9 -6 -10 -10 -3 -10 6 0 15 5 18 10 8 12 4 12 -15 0z"/>
<path d="M2361 1264 c0 -11 3 -14 6 -6 3 7 2 16 -1 19 -3 4 -6 -2 -5 -13z"/>
<path d="M2472 1260 c0 -14 2 -19 5 -12 2 6 2 18 0 25 -3 6 -5 1 -5 -13z"/>
<path d="M671 1233 c1 -34 2 -35 9 -13 11 36 11 50 0 50 -5 0 -10 -17 -9 -37z"/>
<path d="M831 1254 c0 -11 3 -14 6 -6 3 7 2 16 -1 19 -3 4 -6 -2 -5 -13z"/>
<path d="M1996 1247 c-11 -40 -8 -51 9 -37 13 11 15 10 9 -6 -4 -14 -3 -15 4
-5 5 7 7 22 5 32 -3 11 0 19 6 19 7 0 10 -4 6 -9 -3 -5 -1 -12 4 -15 5 -4 8 1
7 11 -2 9 -12 20 -23 24 -17 6 -22 3 -27 -14z"/>
<path d="M2411 1254 c0 -11 3 -14 6 -6 3 7 2 16 -1 19 -3 4 -6 -2 -5 -13z"/>
<path d="M702 1225 c0 -16 2 -22 5 -12 2 9 2 23 0 30 -3 6 -5 -1 -5 -18z"/>
<path d="M891 1234 c0 -11 3 -14 6 -6 3 7 2 16 -1 19 -3 4 -6 -2 -5 -13z"/>
<path d="M651 1224 c0 -11 3 -14 6 -6 3 7 2 16 -1 19 -3 4 -6 -2 -5 -13z"/>
<path d="M601 1214 c0 -11 3 -14 6 -6 3 7 2 16 -1 19 -3 4 -6 -2 -5 -13z"/>
<path d="M2180 1221 c0 -6 4 -13 10 -16 6 -3 7 1 4 9 -7 18 -14 21 -14 7z"/>
<path d="M1167 1214 c-4 -4 2 -13 13 -21 22 -15 29 -59 8 -48 -7 4 -5 0 5 -8
18 -15 25 -53 7 -42 -5 3 -10 -1 -10 -10 0 -9 5 -13 10 -10 6 3 10 -1 10 -9 0
-9 5 -16 11 -16 5 0 7 5 3 11 -7 11 -8 26 -12 118 -2 36 -4 41 -16 32 -10 -9
-15 -9 -18 -1 -2 6 -7 8 -11 4z"/>
<path d="M2126 1212 c-2 -4 -1 -14 5 -22 7 -12 9 -10 9 8 0 23 -5 28 -14 14z"/>
<path d="M2651 1204 c0 -11 3 -14 6 -6 3 7 2 16 -1 19 -3 4 -6 -2 -5 -13z"/>
<path d="M762 1180 c0 -19 2 -27 5 -17 2 9 2 25 0 35 -3 9 -5 1 -5 -18z"/>
<path d="M2473 1175 c0 -22 2 -30 4 -17 2 12 2 30 0 40 -3 9 -5 -1 -4 -23z"/>
<path d="M2587 1194 c-4 -4 -7 -14 -7 -23 0 -11 3 -12 11 -4 6 6 10 16 7 23
-2 6 -7 8 -11 4z"/>
<path d="M1080 1171 c0 -25 6 -27 13 -6 4 8 2 17 -3 20 -6 4 -10 -3 -10 -14z"/>
<path d="M694 1165 c-3 -8 -4 -20 -2 -27 3 -7 7 -1 10 15 6 29 1 36 -8 12z"/>
<path d="M971 1164 c0 -11 3 -14 6 -6 3 7 2 16 -1 19 -3 4 -6 -2 -5 -13z"/>
<path d="M2293 1135 c0 -27 2 -38 4 -22 2 15 2 37 0 50 -2 12 -4 0 -4 -28z"/>
<path d="M2432 1160 c0 -14 2 -19 5 -12 2 6 2 18 0 25 -3 6 -5 1 -5 -13z"/>
<path d="M1280 1139 c0 -16 4 -28 9 -25 8 5 3 56 -5 56 -2 0 -4 -14 -4 -31z"/>
<path d="M605 1149 c-4 -6 -5 -12 -2 -15 2 -3 7 2 10 11 7 17 1 20 -8 4z"/>
<path d="M633 1147 c4 -10 7 -30 7 -43 0 -13 4 -24 9 -24 10 0 -3 68 -15 78
-4 4 -4 -1 -1 -11z"/>
<path d="M721 1144 c0 -11 3 -14 6 -6 3 7 2 16 -1 19 -3 4 -6 -2 -5 -13z"/>
<path d="M1123 1145 c0 -8 4 -12 9 -9 5 3 6 10 3 15 -9 13 -12 11 -12 -6z"/>
<path d="M1150 1149 c0 -5 5 -7 10 -4 6 3 10 8 10 11 0 2 -4 4 -10 4 -5 0 -10
-5 -10 -11z"/>
<path d="M1518 1151 c8 -4 13 -11 13 -15 -3 -18 0 -20 9 -6 9 15 -3 30 -25 30
-5 0 -4 -4 3 -9z"/>
<path d="M1653 1153 c-37 -7 -26 -19 12 -15 19 2 35 8 35 13 0 9 -8 10 -47 2z"/>
<path d="M1986 1143 c-4 -9 -3 -20 2 -25 6 -6 11 1 14 16 6 29 -6 35 -16 9z"/>
<path d="M1564 1138 c-5 -8 -2 -9 10 -5 14 6 17 3 12 -10 -6 -14 -4 -15 5 -6
12 12 5 33 -11 33 -5 0 -12 -5 -16 -12z"/>
<path d="M1728 1143 c6 -2 18 -2 25 0 6 3 1 5 -13 5 -14 0 -19 -2 -12 -5z"/>
<path d="M2552 1130 c0 -14 2 -19 5 -12 2 6 2 18 0 25 -3 6 -5 1 -5 -13z"/>
<path d="M2105 1131 c-3 -5 -1 -12 5 -16 5 -3 10 1 10 9 0 18 -6 21 -15 7z"/>
<path d="M852 1110 c0 -14 2 -19 5 -12 2 6 2 18 0 25 -3 6 -5 1 -5 -13z"/>
<path d="M2055 1120 c3 -5 8 -10 11 -10 2 0 4 5 4 10 0 6 -5 10 -11 10 -5 0
-7 -4 -4 -10z"/>
<path d="M2211 1114 c0 -11 3 -14 6 -6 3 7 2 16 -1 19 -3 4 -6 -2 -5 -13z"/>
<path d="M2517 1123 c-4 -3 -7 -13 -7 -22 1 -13 3 -13 11 2 11 19 8 33 -4 20z"/>
<path d="M2571 1125 c1 -19 18 -51 18 -35 0 8 -4 22 -9 30 -5 8 -9 11 -9 5z"/>
<path d="M2371 1066 c1 -31 5 -58 8 -61 8 -4 3 106 -4 114 -3 2 -4 -21 -4 -53z"/>
<path d="M676 1093 c-6 -14 -5 -15 5 -6 7 7 10 15 7 18 -3 3 -9 -2 -12 -12z"/>
<path d="M1374 1069 c-1 -21 2 -39 7 -39 11 0 12 67 1 74 -4 2 -8 -13 -8 -35z"/>
<path d="M1618 1103 c7 -3 16 -2 19 1 4 3 -2 6 -13 5 -11 0 -14 -3 -6 -6z"/>
<path d="M1819 1105 c-4 -5 -6 -30 -7 -55 l0 -45 9 40 c10 40 8 78 -2 60z"/>
<path d="M731 1084 c0 -11 3 -14 6 -6 3 7 2 16 -1 19 -3 4 -6 -2 -5 -13z"/>
<path d="M1970 1085 c0 -8 4 -17 10 -20 6 -4 7 1 3 11 -4 11 -3 15 5 10 6 -3
13 -3 16 2 2 4 -4 9 -15 9 -10 1 -19 -4 -19 -12z"/>
<path d="M2342 1080 c0 -14 2 -19 5 -12 2 6 2 18 0 25 -3 6 -5 1 -5 -13z"/>
<path d="M2410 1091 c0 -5 5 -13 10 -16 6 -3 10 -2 10 4 0 5 -4 13 -10 16 -5
3 -10 2 -10 -4z"/>
<path d="M2485 1089 c-4 -6 -5 -12 -2 -15 2 -3 7 2 10 11 7 17 1 20 -8 4z"/>
<path d="M1147 1068 c-9 -31 -2 -33 11 -3 6 14 8 25 3 25 -5 0 -11 -10 -14
-22z"/>
<path d="M2228 1063 c-6 -105 -5 -148 2 -167 6 -14 9 17 9 87 1 59 -1 107 -4
107 -3 0 -6 -12 -7 -27z"/>
<path d="M2536 1063 c-6 -14 -5 -15 5 -6 7 7 10 15 7 18 -3 3 -9 -2 -12 -12z"/>
<path d="M891 1054 c0 -11 3 -14 6 -6 3 7 2 16 -1 19 -3 4 -6 -2 -5 -13z"/>
<path d="M961 980 l2 -95 10 83 c7 61 7 86 -2 95 -8 8 -11 -13 -10 -83z"/>
<path d="M1591 1025 c-1 -28 2 -45 9 -45 6 0 8 -5 4 -11 -10 -17 -11 -89 -1
-89 5 0 7 17 6 38 -2 21 0 43 4 49 4 6 3 14 -3 18 -5 3 -10 11 -10 16 0 6 5 7
10 4 6 -3 10 1 10 10 0 10 -5 13 -11 9 -9 -5 -10 1 -5 20 3 14 3 26 -2 26 -5
0 -9 -20 -11 -45z"/>
<path d="M867 1047 c-11 -29 -9 -43 4 -30 6 6 9 19 7 29 -3 18 -4 18 -11 1z"/>
<path d="M1001 1044 c0 -11 3 -14 6 -6 3 7 2 16 -1 19 -3 4 -6 -2 -5 -13z"/>
<path d="M2192 1035 c0 -16 2 -22 5 -12 2 9 2 23 0 30 -3 6 -5 -1 -5 -18z"/>
<path d="M2506 1045 c-9 -26 -7 -32 5 -12 6 10 9 21 6 23 -2 3 -7 -2 -11 -11z"/>
<path d="M1963 1003 c0 -30 -5 -59 -13 -70 -14 -17 -14 -17 7 0 13 11 19 25
16 35 -5 11 -3 13 8 7 11 -7 12 -6 2 6 -6 8 -13 28 -16 44 -3 17 -5 8 -4 -22z"/>
<path d="M2056 1035 c4 -8 8 -15 10 -15 2 0 4 7 4 15 0 8 -4 15 -10 15 -5 0
-7 -7 -4 -15z"/>
<path d="M1160 1030 c0 -5 4 -10 9 -10 6 0 13 5 16 10 3 6 -1 10 -9 10 -9 0
-16 -4 -16 -10z"/>
<path d="M1206 1029 c3 -5 10 -7 15 -4 5 3 6 -1 3 -10 -5 -13 -9 -13 -22 -3
-10 8 -7 0 6 -18 12 -17 18 -35 14 -39 -4 -5 -2 -5 5 -1 8 4 13 -5 16 -26 l4
-33 1 36 c2 26 -3 39 -14 43 -13 5 -14 9 -4 21 15 18 9 38 -13 41 -9 1 -15 -2
-11 -7z"/>
<path d="M640 1021 c0 -5 5 -13 10 -16 6 -3 10 -2 10 4 0 5 -4 13 -10 16 -5 3
-10 2 -10 -4z"/>
<path d="M701 1004 c0 -11 3 -14 6 -6 3 7 2 16 -1 19 -3 4 -6 -2 -5 -13z"/>
<path d="M2420 1016 c0 -2 8 -10 18 -17 15 -13 16 -12 3 4 -13 16 -21 21 -21
13z"/>
<path d="M1370 993 c0 -9 3 -13 7 -10 3 4 13 1 21 -6 13 -10 14 -9 3 11 -14
26 -31 29 -31 5z"/>
<path d="M2530 1000 c0 -5 5 -10 11 -10 5 0 7 5 4 10 -3 6 -8 10 -11 10 -2 0
-4 -4 -4 -10z"/>
<path d="M2320 985 c0 -11 5 -27 10 -35 8 -12 10 -12 10 5 0 11 -5 27 -10 35
-8 12 -10 12 -10 -5z"/>
<path d="M871 983 c0 -4 4 -17 9 -28 8 -19 9 -19 9 2 1 12 -3 25 -9 28 -5 3
-10 3 -9 -2z"/>
<path d="M1816 975 c-3 -8 -1 -15 4 -15 6 0 10 7 10 15 0 8 -2 15 -4 15 -2 0
-6 -7 -10 -15z"/>
<path d="M2002 967 c-7 -8 -6 -17 3 -30 11 -16 13 -15 11 13 -1 35 0 34 -14
17z"/>
<path d="M1374 959 c-5 -8 -3 -9 6 -4 10 6 11 -1 7 -31 -4 -21 -4 -34 -1 -27
3 7 12 9 20 6 8 -3 14 0 14 7 0 6 -4 8 -10 5 -6 -3 -10 5 -10 19 0 28 -15 42
-26 25z"/>
<path d="M2420 950 c0 -11 2 -20 4 -20 2 0 6 9 9 20 3 11 1 20 -4 20 -5 0 -9
-9 -9 -20z"/>
<path d="M915 951 c-3 -6 1 -25 10 -43 11 -23 13 -26 9 -8 -3 14 -6 33 -5 43
0 19 -5 22 -14 8z"/>
<path d="M2270 955 c0 -5 5 -17 10 -25 5 -8 10 -10 10 -5 0 6 -5 17 -10 25 -5
8 -10 11 -10 5z"/>
<path d="M626 941 c-4 -7 -5 -15 -2 -18 9 -9 19 4 14 18 -4 11 -6 11 -12 0z"/>
<path d="M1802 942 c-8 -6 -6 -13 8 -25 13 -11 20 -13 20 -4 0 21 -15 36 -28
29z"/>
<path d="M2120 936 c0 -8 5 -18 10 -21 6 -3 10 1 10 9 0 8 -4 18 -10 21 -5 3
-10 -1 -10 -9z"/>
<path d="M2380 941 c0 -6 4 -13 10 -16 6 -3 7 1 4 9 -7 18 -14 21 -14 7z"/>
<path d="M2560 939 c0 -5 5 -7 10 -4 6 3 10 8 10 11 0 2 -4 4 -10 4 -5 0 -10
-5 -10 -11z"/>
<path d="M703 890 c0 -30 2 -43 4 -27 2 15 2 39 0 55 -2 15 -4 2 -4 -28z"/>
<path d="M1070 908 c0 -36 4 -35 14 5 4 16 2 27 -4 27 -5 0 -10 -14 -10 -32z"/>
<path d="M1784 911 c4 -5 2 -11 -4 -13 -5 -2 -7 -19 -3 -41 4 -24 9 -34 14
-26 4 7 3 23 -2 36 -8 22 -5 27 15 24 5 -1 4 5 -4 13 -13 17 -25 22 -16 7z"/>
<path d="M2458 895 c2 -14 6 -25 8 -25 2 0 4 11 4 25 0 14 -4 25 -9 25 -4 0
-6 -11 -3 -25z"/>
<path d="M800 901 c0 -6 4 -13 10 -16 6 -3 7 1 4 9 -7 18 -14 21 -14 7z"/>
<path d="M1930 888 c0 -10 2 -18 5 -18 2 0 9 8 14 18 8 14 6 19 -5 19 -7 0
-14 -9 -14 -19z"/>
<path d="M2258 876 c-5 -43 -1 -46 13 -9 6 16 6 30 1 35 -6 6 -11 -4 -14 -26z"/>
<path d="M2320 890 c6 -11 13 -20 16 -20 2 0 0 9 -6 20 -6 11 -13 20 -16 20
-2 0 0 -9 6 -20z"/>
<path d="M2493 870 c0 -25 2 -35 4 -22 2 12 2 32 0 45 -2 12 -4 2 -4 -23z"/>
<path d="M855 880 c3 -5 8 -10 11 -10 2 0 4 5 4 10 0 6 -5 10 -11 10 -5 0 -7
-4 -4 -10z"/>
<path d="M2360 879 c0 -5 5 -7 10 -4 6 3 10 8 10 11 0 2 -4 4 -10 4 -5 0 -10
-5 -10 -11z"/>
<path d="M910 865 c0 -8 4 -15 10 -15 5 0 7 7 4 15 -4 8 -8 15 -10 15 -2 0 -4
-7 -4 -15z"/>
<path d="M1236 857 c-11 -40 -8 -51 9 -37 16 14 20 46 6 54 -5 3 -11 -4 -15
-17z"/>
<path d="M1382 860 c0 -14 2 -19 5 -12 2 6 2 18 0 25 -3 6 -5 1 -5 -13z"/>
<path d="M1800 871 c0 -6 4 -13 10 -16 6 -3 7 1 4 9 -7 18 -14 21 -14 7z"/>
<path d="M785 850 c10 -11 20 -20 23 -20 3 0 -3 9 -13 20 -10 11 -20 20 -23
20 -3 0 3 -9 13 -20z"/>
<path d="M1950 823 c0 -24 2 -43 4 -43 8 0 12 60 4 72 -4 8 -8 -4 -8 -29z"/>
<path d="M971 824 c0 -11 3 -14 6 -6 3 7 2 16 -1 19 -3 4 -6 -2 -5 -13z"/>
<path d="M2118 806 c-4 -17 -1 -23 9 -19 15 6 18 29 4 37 -5 3 -11 -5 -13 -18z"/>
<path d="M930 810 c-9 -6 -10 -10 -3 -10 6 0 15 5 18 10 8 12 4 12 -15 0z"/>
<path d="M1101 804 c0 -11 3 -14 6 -6 3 7 2 16 -1 19 -3 4 -6 -2 -5 -13z"/>
<path d="M1597 800 c-3 -11 -2 -22 2 -24 4 -3 8 6 9 20 2 29 -4 31 -11 4z"/>
<path d="M880 800 c0 -5 5 -10 11 -10 5 0 7 5 4 10 -3 6 -8 10 -11 10 -2 0 -4
-4 -4 -10z"/>
<path d="M940 790 c-9 -6 -10 -10 -3 -10 6 0 15 5 18 10 8 12 4 12 -15 0z"/>
<path d="M2240 796 c0 -2 7 -7 16 -10 8 -3 12 -2 9 4 -6 10 -25 14 -25 6z"/>
<path d="M1792 770 c0 -14 2 -19 5 -12 2 6 2 18 0 25 -3 6 -5 1 -5 -13z"/>
<path d="M1080 770 c0 -5 5 -10 11 -10 5 0 7 5 4 10 -3 6 -8 10 -11 10 -2 0
-4 -4 -4 -10z"/>
<path d="M1137 773 c-4 -3 -7 -16 -6 -27 0 -19 1 -19 10 3 10 24 8 36 -4 24z"/>
<path d="M2160 776 c0 -2 8 -10 18 -17 15 -13 16 -12 3 4 -13 16 -21 21 -21
13z"/>
<path d="M1972 750 c0 -14 2 -19 5 -12 2 6 2 18 0 25 -3 6 -5 1 -5 -13z"/>
<path d="M1290 750 c-8 -5 -10 -10 -5 -10 6 0 17 5 25 10 8 5 11 10 5 10 -5 0
-17 -5 -25 -10z"/>
<path d="M1607 747 c-3 -8 -1 -20 4 -28 6 -10 9 -7 9 14 0 29 -5 35 -13 14z"/>
<path d="M1907 753 c-4 -3 -7 -11 -7 -17 0 -6 5 -5 12 2 6 6 9 14 7 17 -3 3
-9 2 -12 -2z"/>
<path d="M1071 734 c0 -11 3 -14 6 -6 3 7 2 16 -1 19 -3 4 -6 -2 -5 -13z"/>
<path d="M1221 734 c0 -11 3 -14 6 -6 3 7 2 16 -1 19 -3 4 -6 -2 -5 -13z"/>
<path d="M2101 745 c1 -19 18 -51 18 -35 0 8 -4 22 -9 30 -5 8 -9 11 -9 5z"/>
<path d="M1825 729 c-4 -6 -5 -12 -2 -15 2 -3 7 2 10 11 7 17 1 20 -8 4z"/>
<path d="M2200 725 c0 -8 2 -15 4 -15 2 0 6 7 10 15 3 8 1 15 -4 15 -6 0 -10
-7 -10 -15z"/>
<path d="M911 714 c0 -11 3 -14 6 -6 3 7 2 16 -1 19 -3 4 -6 -2 -5 -13z"/>
<path d="M940 726 c0 -2 8 -10 18 -17 15 -13 16 -12 3 4 -13 16 -21 21 -21 13z"/>
<path d="M1773 706 c0 -14 3 -26 8 -26 11 0 11 21 0 39 -6 9 -8 5 -8 -13z"/>
<path d="M2165 719 c-4 -6 -5 -12 -2 -15 2 -3 7 2 10 11 7 17 1 20 -8 4z"/>
<path d="M1326 712 c-3 -5 1 -9 9 -9 8 0 12 4 9 9 -3 4 -7 8 -9 8 -2 0 -6 -4
-9 -8z"/>
<path d="M1036 697 c3 -10 9 -15 12 -12 3 3 0 11 -7 18 -10 9 -11 8 -5 -6z"/>
<path d="M1091 703 c0 -5 4 -17 9 -28 8 -18 9 -17 9 8 1 15 -3 27 -9 27 -5 0
-10 -3 -9 -7z"/>
<path d="M1417 696 c-4 -11 -5 -21 -2 -24 3 -3 5 -2 5 3 0 4 8 1 18 -6 15 -12
16 -12 6 1 -6 8 -13 22 -16 29 -3 12 -6 11 -11 -3z"/>
<path d="M2229 683 l-24 -28 28 24 c25 23 32 31 24 31 -2 0 -14 -12 -28 -27z"/>
<path d="M1382 669 c6 -16 12 -28 14 -26 5 5 -13 57 -20 57 -3 0 0 -14 6 -31z"/>
<path d="M1860 688 c0 -4 7 -8 15 -8 8 0 15 4 15 8 0 5 -7 9 -15 9 -8 0 -15
-4 -15 -9z"/>
<path d="M980 686 c0 -2 8 -10 18 -17 15 -13 16 -12 3 4 -13 16 -21 21 -21 13z"/>
<path d="M1821 677 c-8 -11 -6 -18 12 -33 22 -19 22 -19 5 2 -14 16 -15 23 -6
32 7 7 9 12 6 12 -3 0 -11 -6 -17 -13z"/>
<path d="M1151 664 c0 -11 3 -14 6 -6 3 7 2 16 -1 19 -3 4 -6 -2 -5 -13z"/>
<path d="M1505 666 c-6 -13 -3 -21 8 -27 9 -5 23 -16 31 -24 8 -8 17 -11 20
-7 3 5 -5 14 -19 20 -13 6 -25 21 -27 34 -4 21 -5 21 -13 4z"/>
<path d="M1750 669 c0 -22 27 -32 34 -13 4 9 2 12 -5 8 -6 -4 -15 0 -20 7 -7
11 -9 11 -9 -2z"/>
<path d="M2056 665 c-3 -9 -6 -22 -5 -28 0 -7 5 -1 10 12 5 13 8 26 5 28 -2 2
-6 -3 -10 -12z"/>
<path d="M1315 660 c4 -6 11 -8 16 -5 14 9 11 15 -7 15 -8 0 -12 -5 -9 -10z"/>
<path d="M1961 654 c0 -11 3 -14 6 -6 3 7 2 16 -1 19 -3 4 -6 -2 -5 -13z"/>
<path d="M2179 643 c-13 -16 -12 -17 4 -4 9 7 17 15 17 17 0 8 -8 3 -21 -13z"/>
<path d="M1591 647 c2 -1 13 -9 24 -17 19 -14 19 -14 6 3 -7 9 -18 17 -24 17
-6 0 -8 -1 -6 -3z"/>
<path d="M916 623 c-6 -14 -5 -15 5 -6 7 7 10 15 7 18 -3 3 -9 -2 -12 -12z"/>
<path d="M1130 638 c0 -14 35 -83 53 -100 16 -17 17 -17 17 3 0 11 -4 17 -10
14 -6 -4 -10 6 -11 22 0 15 -3 22 -6 14 -4 -10 -12 -3 -24 20 -10 19 -18 31
-19 27z"/>
<path d="M2101 624 c0 -11 3 -14 6 -6 3 7 2 16 -1 19 -3 4 -6 -2 -5 -13z"/>
<path d="M1326 616 c4 -10 13 -15 21 -11 11 4 13 1 9 -12 -6 -15 -5 -16 5 -5
10 9 10 15 1 24 -7 7 -12 8 -12 4 0 -5 -7 -3 -15 4 -13 11 -14 10 -9 -4z"/>
<path d="M1716 621 c-3 -5 4 -11 16 -14 29 -8 32 -4 8 11 -10 6 -21 8 -24 3z"/>
<path d="M1641 604 c0 -11 3 -14 6 -6 3 7 2 16 -1 19 -3 4 -6 -2 -5 -13z"/>
<path d="M2077 613 c-4 -3 -7 -11 -7 -17 0 -6 5 -5 12 2 6 6 9 14 7 17 -3 3
-9 2 -12 -2z"/>
<path d="M2276 603 c-6 -14 -5 -15 5 -6 7 7 10 15 7 18 -3 3 -9 -2 -12 -12z"/>
<path d="M1826 597 c7 -18 47 -31 41 -14 -2 7 -8 12 -13 12 -5 0 -15 4 -21 8
-9 5 -11 3 -7 -6z"/>
<path d="M1380 593 c0 -6 8 -17 18 -24 16 -13 16 -13 2 6 -8 11 -16 22 -17 24
-2 2 -3 0 -3 -6z"/>
<path d="M1476 594 c7 -3 9 -15 6 -27 -5 -21 -5 -21 13 -4 15 16 16 20 4 28
-8 5 -18 8 -24 8 -5 0 -5 -3 1 -5z"/>
<path d="M1438 583 c6 -2 10 -9 6 -14 -3 -5 2 -9 12 -9 13 0 14 3 4 15 -7 8
-18 15 -24 14 -7 0 -6 -2 2 -6z"/>
<path d="M1714 578 c-5 -8 -2 -9 9 -5 10 3 17 2 17 -3 0 -6 -8 -10 -17 -11
-12 0 -13 -2 -5 -6 7 -3 19 0 26 6 18 15 50 3 37 -13 -7 -8 -4 -12 8 -12 26 0
15 24 -20 41 -34 18 -46 19 -55 3z"/>
<path d="M2040 578 c0 -7 5 -20 10 -28 8 -12 10 -11 10 7 0 12 -4 25 -10 28
-5 3 -10 0 -10 -7z"/>
<path d="M1520 576 c0 -2 7 -7 16 -10 8 -3 12 -2 9 4 -6 10 -25 14 -25 6z"/>
<path d="M1685 570 c-3 -5 -1 -10 4 -10 6 0 11 5 11 10 0 6 -2 10 -4 10 -3 0
-8 -4 -11 -10z"/>
<path d="M1976 563 c-4 -9 -2 -21 4 -27 7 -7 10 -2 10 17 0 31 -5 34 -14 10z"/>
<path d="M1648 563 c7 -3 16 -2 19 1 4 3 -2 6 -13 5 -11 0 -14 -3 -6 -6z"/>
<path d="M1830 566 c0 -3 9 -10 20 -16 11 -6 20 -8 20 -6 0 3 -9 10 -20 16
-11 6 -20 8 -20 6z"/>
<path d="M1090 533 c0 -21 3 -24 9 -14 5 8 7 20 4 28 -8 21 -13 15 -13 -14z"/>
<path d="M1653 532 c1 -12 6 -18 15 -15 7 3 10 9 5 12 -4 3 -11 10 -15 15 -4
4 -6 -1 -5 -12z"/>
<path d="M1745 540 c-3 -5 -1 -10 4 -10 6 0 11 5 11 10 0 6 -2 10 -4 10 -3 0
-8 -4 -11 -10z"/>
<path d="M1297 529 c7 -7 15 -10 18 -7 3 3 -2 9 -12 12 -14 6 -15 5 -6 -5z"/>
<path d="M1486 525 c-3 -8 -1 -15 4 -15 6 0 10 7 10 15 0 8 -2 15 -4 15 -2 0
-6 -7 -10 -15z"/>
<path d="M1427 519 c7 -7 15 -10 18 -7 3 3 -2 9 -12 12 -14 6 -15 5 -6 -5z"/>
<path d="M1971 504 c0 -11 3 -14 6 -6 3 7 2 16 -1 19 -3 4 -6 -2 -5 -13z"/>
<path d="M1184 468 c8 -31 12 -37 14 -20 2 12 8 20 13 17 5 -4 9 -1 9 5 0 7
-7 10 -15 6 -10 -4 -15 1 -15 14 0 11 -4 20 -9 20 -4 0 -3 -19 3 -42z"/>
<path d="M1517 499 c7 -7 15 -10 18 -7 3 3 -2 9 -12 12 -14 6 -15 5 -6 -5z"/>
<path d="M1345 489 c-4 -6 -5 -12 -2 -15 2 -3 7 2 10 11 7 17 1 20 -8 4z"/>
<path d="M1828 493 c6 -2 12 -9 12 -14 0 -6 -5 -7 -12 -3 -7 5 -8 3 -3 -5 5
-9 11 -9 17 -3 12 12 2 32 -15 31 -9 0 -9 -2 1 -6z"/>
<path d="M1875 490 c-3 -5 -1 -10 4 -10 6 0 11 5 11 10 0 6 -2 10 -4 10 -3 0
-8 -4 -11 -10z"/>
<path d="M1503 475 c0 -8 4 -12 9 -9 5 3 6 10 3 15 -9 13 -12 11 -12 -6z"/>
<path d="M1715 480 c3 -5 11 -10 16 -10 6 0 7 5 4 10 -3 6 -11 10 -16 10 -6 0
-7 -4 -4 -10z"/>
<path d="M1943 475 c-3 -9 -3 -18 -1 -21 3 -3 8 4 11 16 6 23 -1 27 -10 5z"/>
<path d="M1121 464 c0 -11 3 -14 6 -6 3 7 2 16 -1 19 -3 4 -6 -2 -5 -13z"/>
<path d="M1470 470 c-13 -8 -12 -10 3 -10 9 0 17 5 17 10 0 12 -1 12 -20 0z"/>
<path d="M1980 470 c0 -5 5 -10 11 -10 5 0 7 5 4 10 -3 6 -8 10 -11 10 -2 0
-4 -4 -4 -10z"/>
<path d="M1406 455 c4 -8 11 -15 16 -15 6 0 5 6 -2 15 -7 8 -14 15 -16 15 -2
0 -1 -7 2 -15z"/>
<path d="M1240 421 c0 -6 4 -13 10 -16 6 -3 7 1 4 9 -7 18 -14 21 -14 7z"/>
<path d="M1286 393 c-6 -14 -5 -15 5 -6 7 7 10 15 7 18 -3 3 -9 -2 -12 -12z"/>
<path d="M1325 390 c-3 -5 -1 -10 4 -10 6 0 11 5 11 10 0 6 -2 10 -4 10 -3 0
-8 -4 -11 -10z"/>
<path d="M1280 358 c0 -4 5 -10 10 -13 6 -3 10 -1 10 5 0 6 5 8 10 5 6 -3 10
-2 10 4 0 5 -9 9 -20 8 -11 -1 -20 -5 -20 -9z"/>
<path d="M1456 357 c3 -8 1 -18 -5 -21 -12 -8 -3 -36 12 -36 6 0 22 -12 34
-27 l23 -28 -11 28 c-7 15 -16 27 -21 27 -5 0 -6 4 -3 10 3 5 0 7 -8 4 -8 -3
-14 2 -14 11 0 14 11 20 32 15 6 -1 6 2 2 7 -5 4 -12 8 -15 8 -4 0 -13 4 -19
8 -9 5 -11 3 -7 -6z"/>
<path d="M1651 344 c-23 -30 -27 -44 -10 -44 6 0 9 -6 6 -13 -3 -7 5 -19 16
-26 18 -11 20 -11 10 0 -16 16 -17 63 -3 90 15 27 5 24 -19 -7z"/>
<path d="M1235 340 c10 -11 20 -20 23 -20 3 0 -3 9 -13 20 -10 11 -20 20 -23
20 -3 0 3 -9 13 -20z"/>
<path d="M1420 336 c0 -31 6 -34 13 -6 3 11 1 23 -4 26 -5 3 -9 -6 -9 -20z"/>
<path d="M1703 338 c-9 -10 -11 -18 -6 -18 6 0 14 7 17 16 4 9 9 14 12 11 3
-3 1 -14 -5 -24 -8 -15 -7 -20 5 -20 7 0 14 10 14 21 0 17 2 18 10 6 7 -12 9
-11 8 5 -2 26 -33 27 -55 3z"/>
<path d="M1840 349 c0 -5 5 -7 10 -4 6 3 10 8 10 11 0 2 -4 4 -10 4 -5 0 -10
-5 -10 -11z"/>
<path d="M1530 333 c8 -18 7 -24 -7 -32 -10 -6 -13 -11 -6 -11 6 0 15 5 19 11
4 8 9 7 15 -2 5 -9 9 -10 9 -3 0 7 -9 22 -21 35 -19 23 -20 23 -9 2z"/>
<path d="M1605 321 c5 -34 12 -48 19 -40 2 2 -3 20 -10 39 l-14 35 5 -34z"/>
<path d="M1787 339 c7 -7 15 -10 18 -7 3 3 -2 9 -12 12 -14 6 -15 5 -6 -5z"/>
<path d="M1570 315 c0 -8 4 -15 10 -15 5 0 7 7 4 15 -4 8 -8 15 -10 15 -2 0
-4 -7 -4 -15z"/>
<path d="M1413 285 c0 -8 4 -12 9 -9 5 3 6 10 3 15 -9 13 -12 11 -12 -6z"/>
<path d="M1573 282 c-8 -5 -8 -12 3 -26 8 -11 14 -15 14 -9 0 15 33 10 38 -6
2 -7 -3 -11 -14 -9 -14 2 -20 -4 -21 -22 l-2 -25 8 25 9 25 2 -25 c2 -18 4
-20 7 -7 2 9 9 17 14 17 6 0 7 -5 3 -12 -5 -7 -3 -8 5 -4 7 5 10 14 7 22 -3 8
0 14 7 14 7 0 -1 7 -17 15 -16 9 -36 13 -43 11 -7 -3 -13 -1 -13 3 0 5 6 12
13 14 6 3 8 6 2 6 -5 0 -15 -3 -22 -7z"/>
<path d="M1790 271 c0 -7 -5 -9 -12 -5 -7 5 -8 3 -3 -5 5 -9 10 -10 18 -2 6 6
8 14 4 18 -4 3 -7 1 -7 -6z"/>
<path d="M1724 228 l-19 -23 23 19 c21 18 27 26 19 26 -2 0 -12 -10 -23 -22z"/>
<path d="M1560 211 c0 -6 4 -13 10 -16 6 -3 7 1 4 9 -7 18 -14 21 -14 7z"/>
</g>
</svg>
